<?xml version="1.0" encoding="utf-8"?>
<!-- Generator: Adobe Illustrator 16.0.0, SVG Export Plug-In . SVG Version: 6.00 Build 0)  -->
<!DOCTYPE svg PUBLIC "-//W3C//DTD SVG 1.1//EN" "http://www.w3.org/Graphics/SVG/1.1/DTD/svg11.dtd">
<svg version="1.1" id="Capa_1" xmlns="http://www.w3.org/2000/svg" xmlns:xlink="http://www.w3.org/1999/xlink" x="0px" y="0px"
	 width="568.5px" height="473px" viewBox="0 33.5 568.5 473" enable-background="new 0 33.5 568.5 473" xml:space="preserve">
<g>
	<path fill="#0F71D3" d="M542.617,376.096l-143.587-44.87c31.011-36.954,49.889-95.534,49.889-150.36
		c0-82.953-47.291-136.542-120.438-136.542c-73.175,0-120.465,53.588-120.465,136.542c0,54.813,18.865,113.406,49.902,150.36
		l-143.6,44.87c-14.213,4.434-23.884,17.559-23.884,32.466v52.011c0,18.811,15.22,34.003,34.003,34.003h408.061
		c18.783,0,34.002-15.192,34.002-34.003v-52.011C566.5,393.682,556.83,380.543,542.617,376.096z"/>
	<path fill="#0F71D3" d="M178.924,229.504h-43.375v-43.375c0-16.977-13.761-30.718-30.718-30.718s-30.718,13.742-30.718,30.718
		v43.375H30.718C13.761,229.504,0,243.246,0,260.223c0,16.976,13.761,30.718,30.718,30.718h43.396v43.395
		c0,16.977,13.761,30.719,30.718,30.719s30.718-13.742,30.718-30.719V290.94h43.375c16.956,0,30.718-13.742,30.718-30.718
		C209.642,243.266,195.88,229.504,178.924,229.504z"/>
</g>
</svg>
