<svg xmlns="http://www.w3.org/2000/svg" xmlns:xlink="http://www.w3.org/1999/xlink" version="1.1" width="88.71" height="88.709" style="enable-background:new 0 0 88.71 88.709;" xml:space="preserve"><rect id="backgroundrect" width="100%" height="100%" x="0" y="0" fill="none" stroke="none"/>
















<g class="currentLayer"><title>Layer 1</title><g id="svg_1" class="" fill-opacity="1" fill="#005cb9">
	<path d="M49.044,24.514c0-8.1,6.565-14.666,14.666-14.666s14.666,6.566,14.666,14.666c0,8.1-6.565,14.666-14.666,14.666   S49.044,32.613,49.044,24.514z M69.932,40.18H57.488c-10.354,0-18.777,8.424-18.777,18.777V74.18l0.039,0.236l1.05,0.328   c9.88,3.086,18.466,4.117,25.531,4.117c13.801,0,21.8-3.936,22.294-4.186l0.98-0.498l0.104,0.001V58.958   C88.71,48.604,80.287,40.18,69.932,40.18z M25,39.18c8.1,0,14.666-6.566,14.666-14.666c0-8.1-6.566-14.666-14.666-14.666   s-14.666,6.566-14.666,14.666C10.334,32.614,16.9,39.18,25,39.18z M35.326,74.18V58.958c0-6.061,2.445-11.55,6.385-15.568   c-2.997-2.025-6.607-3.209-10.488-3.209H18.778C8.424,40.18,0,48.604,0,58.958V74.18l0.039,0.236l1.051,0.328   c9.879,3.086,18.465,4.117,25.531,4.117c4.493,0,8.359-0.42,11.563-0.99l-2.422-0.758L35.326,74.18z" fill="#005cb9" id="svg_2"/>
</g><g id="svg_3">
</g><g id="svg_4">
</g><g id="svg_5">
</g><g id="svg_6">
</g><g id="svg_7">
</g><g id="svg_8">
</g><g id="svg_9">
</g><g id="svg_10">
</g><g id="svg_11">
</g><g id="svg_12">
</g><g id="svg_13">
</g><g id="svg_14">
</g><g id="svg_15">
</g><g id="svg_16">
</g><g id="svg_17">
</g></g></svg>