<svg xmlns="http://www.w3.org/2000/svg" xmlns:xlink="http://www.w3.org/1999/xlink" version="1.1" xml:space="preserve" width="279.9999981834776" height="347.85714207863316"><rect id="backgroundrect" width="100%" height="100%" x="0" y="0" fill="none" stroke="none" class=""/>




















<g class="currentLayer"><title>Layer 1</title><path style="fill:#324A5E;" d="M103.71427899599075,50.76190233230591 l9.2,-26 h53.6 l9.2,26 h16.8 L179.71427899599075,13.961902332305911 c-1.2,-3.2 -4,-5.2 -7.6,-5.2 h-64.8 c-3.2,0 -6.4,2 -7.6,5.2 L86.91427899599074,50.76190233230591 H103.71427899599075 z" id="svg_2" class=""/><path style="fill:#E6E9EE;" d="M202.51427899599076,339.9619023323059 H76.91427899599074 c-14.8,0 -26.8,-11.2 -28.4,-25.6 L26.11427899599076,78.76190233230591 h227.2 l-22.4,235.2 C229.31427899599078,328.7619023323059 217.31427899599078,339.9619023323059 202.51427899599076,339.9619023323059 z" id="svg_3" class=""/><path style="fill:#FFFFFF;" d="M255.31427899599078,78.76190233230591 H24.11427899599076 c-9.6,0 -17.6,-8 -17.6,-17.6 l0,0 c0,-9.6 8,-17.6 17.6,-17.6 h231.2 c9.6,0 17.6,8 17.6,17.6 l0,0 C272.91427899599074,71.16190233230591 264.91427899599074,78.76190233230591 255.31427899599078,78.76190233230591 z" id="svg_4" class=""/><g id="svg_5" class="">
	<path style="fill:#324A5E;" d="M111.71427899599075,161.16190233230589 l16.8,7.6 c1.6,0.8 3.6,0 4.4,-1.6 l6.8,-12.8 l15.2,28 l0.8,1.6 l-7.2,4 c-2.8,1.6 -2,5.6 0.8,6.4 l27.2,7.2 c2,0.4 4,-0.8 4.4,-2.4 l7.2,-27.2 c0.8,-3.2 -2.4,-5.6 -5.2,-4 l-5.2,3.2 l-23.2,-43.2 l0,0 l0,0 l0,0 l0,0 h-26.4 c-1.2,0 -2.4,0.8 -3.2,2 l-14.4,26.4 C108.91427899599074,157.9619023323059 109.71427899599075,160.3619023323059 111.71427899599075,161.16190233230589 z" id="svg_6"/>
	<path style="fill:#324A5E;" d="M194.91427899599074,203.9619023323059 c-0.8,-1.6 -3.2,-2.4 -4.8,-1.2 l-15.6,9.2 c-1.6,0.8 -2.4,3.2 -1.2,4.8 l6,11.2 H153.71427899599075 V220.7619023323059 c0,-3.2 -3.6,-4.8 -6,-2.4 l-20,19.6 c-1.2,1.2 -1.2,3.6 0,4.8 l20,20 c2.4,2.4 6,0.8 6,-2.4 v-7.2 h37.2 c1.2,0 2.4,-0.8 3.2,-1.6 l14,-23.2 L194.91427899599074,203.9619023323059 z" id="svg_7"/>
	<path style="fill:#324A5E;" d="M126.51427899599076,201.9619023323059 l-9.6,-26.4 c-0.8,-2 -2.8,-2.8 -4.4,-2 l-26.4,9.6 c-2.8,1.2 -3.2,5.2 -0.4,6.4 l4.8,2 l-18.4,34 c-0.4,1.2 -0.4,2.4 0,3.6 l14,23.2 H115.71427899599075 c2,0 3.6,-1.6 3.6,-3.6 v-18 c0,-2 -1.6,-3.6 -3.6,-3.6 h-16 l13.6,-25.6 l8.4,4 C124.91427899599074,207.56190233230592 127.71427899599075,204.7619023323059 126.51427899599076,201.9619023323059 z" id="svg_8"/>
</g><g id="svg_9">
</g><g id="svg_10">
</g><g id="svg_11">
</g><g id="svg_12">
</g><g id="svg_13">
</g><g id="svg_14">
</g><g id="svg_15">
</g><g id="svg_16">
</g><g id="svg_17">
</g><g id="svg_18">
</g><g id="svg_19">
</g><g id="svg_20">
</g><g id="svg_21">
</g><g id="svg_22">
</g><g id="svg_23">
</g></g></svg>