<?xml version="1.0" encoding="utf-8"?>
<!-- Generator: Adobe Illustrator 16.0.0, SVG Export Plug-In . SVG Version: 6.00 Build 0)  -->
<!DOCTYPE svg PUBLIC "-//W3C//DTD SVG 1.1//EN" "http://www.w3.org/Graphics/SVG/1.1/DTD/svg11.dtd">
<svg version="1.1" id="Layer_1" xmlns="http://www.w3.org/2000/svg" xmlns:xlink="http://www.w3.org/1999/xlink" x="0px" y="0px"
	 width="16px" height="16px" viewBox="0 0 16 16" enable-background="new 0 0 16 16" xml:space="preserve">
<path id="svg_3" fill="#2B9CF2" d="M13.52,1.372C11.756-0.684,8.752,0.92,8.326,1.163c-1.369-0.935-3.282-1.757-4.82-0.584
	C2.399,1.42,1.763,2.51,1.611,3.812C1.385,5.772,2.358,7.674,2.864,8.29c0.258,0.312,0.345,1.825,0.411,2.935
	c0.138,2.356,0.261,4.394,1.465,4.648c0.309,0.064,0.603,0.011,0.851-0.154c0.649-0.433,0.854-1.518,1.09-2.773
	c0.305-1.616,0.583-2.85,1.304-2.799c0.217,0.015,0.309,0.096,0.365,0.162c0.365,0.442,0.207,1.76,0.09,2.724
	c-0.167,1.393-0.313,2.601,0.606,2.866c0.082,0.024,0.185,0.045,0.302,0.045c0.186,0,0.405-0.049,0.648-0.194
	c1.411-0.849,2.523-4.517,2.951-6.492c1.123-0.874,1.855-2.151,2.021-3.532C15.096,4.658,14.945,3.038,13.52,1.372L13.52,1.372z"/>
</svg>
