<?xml version="1.0" encoding="utf-8"?>
<!-- Generator: Adobe Illustrator 16.0.0, SVG Export Plug-In . SVG Version: 6.00 Build 0)  -->
<!DOCTYPE svg PUBLIC "-//W3C//DTD SVG 1.1//EN" "http://www.w3.org/Graphics/SVG/1.1/DTD/svg11.dtd">
<svg version="1.1" id="Layer_1" xmlns="http://www.w3.org/2000/svg" xmlns:xlink="http://www.w3.org/1999/xlink" x="0px" y="0px"
	 width="442.5px" height="512px" viewBox="21.5 0 442.5 512" enable-background="new 21.5 0 442.5 512" xml:space="preserve">
<rect id="backgroundrect" fill="none" width="464" height="512"/>
<g>
	<title>Layer 1</title>
	<path id="svg_1" fill="#FFFFFF" d="M402.783,54.045c0-22.763-18.453-41.216-41.216-41.216H80.435
		c-22.763,0-41.216,18.453-41.216,41.216v403.912c0,22.763,18.453,41.216,41.216,41.216h197.978l124.37-124.37V54.045z"/>
	<path id="svg_11" marker-start="" marker-mid="" marker-end="" display="none" fill="#CEE5E5" d="M154,177.2l100-95l31,55l18-5
		l103,199l-8,46l-88,1l-32,9L154,177.2z"/>
	<path id="svg_2" fill="#80D0E1" d="M402.783,374.801h-83.154c-22.763,0-41.216,18.453-41.216,41.217v83.153L402.783,374.801z"/>
	<path id="svg_7" display="none" fill="#12425F" d="M102.545,373.17h130.43c7.088,0,12.83-5.744,12.83-12.829
		s-5.742-12.829-12.83-12.829h-130.43c-7.085,0-12.829,5.744-12.829,12.829S95.46,373.17,102.545,373.17z"/>
	<path id="svg_8" display="none" fill="#12425F" d="M232.975,410.8h-130.43c-7.085,0-12.829,5.744-12.829,12.829
		s5.744,12.829,12.829,12.829h130.43c7.088,0,12.83-5.744,12.83-12.829C245.805,416.543,240.061,410.8,232.975,410.8z"/>
	
		<path id="svg_9" marker-start="" marker-mid="" marker-end="" fill="#4A90D6" stroke="#222222" stroke-width="2" stroke-linejoin="round" d="
		M157,175.2"/>
	<path id="svg_3" display="none" fill="#ED446E" d="M255.951,222.122v-33.131c0-4.298,3.483-7.781,7.781-7.781h33.131
		c4.298,0,7.781-3.483,7.781-7.781v-38.124c0-4.298-3.483-7.781-7.781-7.781h-33.131c-4.298,0-7.781-3.483-7.781-7.781V86.613
		c0-4.298-3.482-7.781-7.781-7.781h-38.126c-4.298,0-7.781,3.483-7.781,7.781v33.13c0,4.298-3.483,7.781-7.781,7.781h-33.131
		c-4.298,0-7.781,3.483-7.781,7.781v38.126c0,4.298,3.483,7.781,7.781,7.781h33.131c4.298,0,7.781,3.483,7.781,7.781v33.131
		c0,4.298,3.483,7.781,7.781,7.781h38.126C252.469,229.903,255.951,226.42,255.951,222.122z"/>
</g>
<g>
	<path display="none" fill="#FFFFFF" d="M143.154,275.601c-0.036,0.036-0.081,0.072-0.12,0.108c-0.393,0.361-0.843,0.65-1.335,0.857
		l-42.504,17.498c-0.01,0.005-0.019,0.01-0.031,0.014l-30.323,12.487c-0.559,0.229-1.147,0.34-1.73,0.34
		c-1.035,0-2.055-0.351-2.875-1.023c-0.118-0.095-0.231-0.198-0.34-0.307c-1.298-1.297-1.688-3.248-0.99-4.946l12.481-30.312
		c0.008-0.017,0.017-0.036,0.023-0.056l17.496-42.49c0.204-0.496,0.497-0.946,0.857-1.336c0.036-0.039,0.07-0.083,0.107-0.12
		c0.007-0.007,0.016-0.019,0.026-0.027l123.848-123.85l15.974-15.972l21.426-21.429c0.901-0.899,1.87-1.709,2.885-2.435V51.769
		c-1.756,0-3.279-0.996-4.037-2.455H53.474v266.682h142.434v-53.033c0-2.51,2.034-4.546,4.546-4.546h53.033v-78.403
		c0-2.512,2.034-4.547,4.546-4.547v-14.74l-114.85,114.848C143.174,275.584,143.163,275.592,143.154,275.601z"/>
	<polygon display="none" fill="#98D9D5" points="247.056,267.508 204.999,267.508 204.999,309.567 	"/>
	<path fill="#6DA8D6" d="M353.059,179.733l-29.423,29.426c-1.437,1.431-3.316,2.148-5.193,2.148c-1.88,0-3.757-0.717-5.196-2.148
		c-2.865-2.87-2.865-7.518,0-10.385l29.428-29.424l-24.231-24.232L131.29,332.271c3.371,1.972,6.512,4.395,9.328,7.207
		c5.756,5.758,9.764,12.741,11.783,20.142l133.155-133.153c2.866-2.867,7.519-2.867,10.384,0c2.868,2.867,2.868,7.515,0,10.385
		L162.785,370.006c7.399,2.017,14.384,6.025,20.14,11.783c2.816,2.813,5.233,5.958,7.211,9.329l187.149-187.154L353.059,179.733z"/>
	<polygon fill="#274B6D" points="92.698,416.437 83.41,438.996 105.966,429.711 	"/>
	<path fill="#FFCC75" d="M172.54,392.175c-6.936-6.939-16.36-10.152-25.204-8.597c-2.361,0.412-4.771-0.353-6.465-2.042
		c-1.694-1.693-2.455-4.107-2.041-6.466c1.555-8.84-1.66-18.268-8.599-25.206c-2.316-2.315-4.948-4.225-7.777-5.69l-23.698,57.549
		l21.923,21.932l57.557-23.701C176.771,397.122,174.858,394.489,172.54,392.175z"/>
	
		<rect x="324.35" y="145.553" transform="matrix(0.7071 0.7071 -0.7071 0.7071 217.8249 -212.953)" fill="#F2EBD9" width="83.221" height="21.799"/>
	<path fill="#F2484B" d="M449.21,120.582c-0.49-5.074-2.691-9.761-6.309-13.38l-27.695-27.694c-0.527-0.527-1.074-1.02-1.637-1.482
		c-0.26-0.214-0.538-0.396-0.809-0.596c-0.314-0.234-0.621-0.479-0.944-0.695c-0.381-0.253-0.782-0.474-1.179-0.703
		c-0.219-0.128-0.434-0.272-0.658-0.392c-0.554-0.294-1.125-0.554-1.699-0.799c-0.073-0.03-0.139-0.068-0.213-0.1
		c-2.634-1.082-5.491-1.651-8.439-1.651c-2.946,0-5.801,0.569-8.434,1.651c-0.095,0.039-0.18,0.088-0.274,0.125
		c-0.553,0.239-1.102,0.49-1.637,0.771c-0.241,0.13-0.476,0.283-0.719,0.425c-0.377,0.217-0.755,0.429-1.123,0.671
		c-0.333,0.225-0.66,0.48-0.988,0.726c-0.252,0.189-0.512,0.364-0.76,0.564c-0.565,0.463-1.114,0.957-1.64,1.485l-29.427,29.423
		l58.847,58.848l29.423-29.424c3.622-3.62,5.819-8.309,6.313-13.383c0.067-0.724,0.104-1.456,0.104-2.195
		C449.313,122.042,449.277,121.307,449.21,120.582z"/>
	<path display="none" fill="#082947" d="M253.486,180.014v78.403h-53.033c-2.512,0-4.546,2.036-4.546,4.546v53.033H53.474V49.314
		h200.519c0.758,1.459,2.281,2.455,4.04,2.455c2.51,0,4.546-2.035,4.546-4.546v-2.455c0-2.511-2.036-4.546-4.546-4.546H48.928
		c-2.511,0-4.546,2.035-4.546,4.546v275.773c0,2.51,2.035,4.546,4.546,4.546h151.525c0.15,0,0.301-0.009,0.453-0.022
		c0.115-0.012,0.223-0.03,0.332-0.05c0.036-0.006,0.072-0.012,0.108-0.018c0.131-0.025,0.259-0.061,0.381-0.095
		c0.017-0.005,0.034-0.008,0.051-0.014c0.125-0.035,0.247-0.083,0.367-0.13c0.017-0.007,0.034-0.012,0.051-0.017
		c0.117-0.051,0.225-0.104,0.333-0.162c0.022-0.011,0.047-0.02,0.069-0.033c0.1-0.05,0.194-0.111,0.292-0.172
		c0.027-0.021,0.061-0.037,0.089-0.056c0.088-0.062,0.172-0.123,0.255-0.189c0.034-0.028,0.069-0.051,0.103-0.078
		c0.103-0.083,0.2-0.173,0.294-0.264c0.008-0.012,0.022-0.021,0.034-0.03l57.579-57.58c0.009-0.011,0.018-0.021,0.025-0.028
		c0.095-0.097,0.189-0.197,0.272-0.303c0.025-0.028,0.044-0.059,0.066-0.086c0.07-0.09,0.14-0.178,0.201-0.273
		c0.017-0.022,0.03-0.05,0.047-0.075c0.064-0.1,0.125-0.203,0.182-0.306c0.01-0.02,0.019-0.039,0.027-0.059
		c0.059-0.111,0.114-0.226,0.164-0.345c0.006-0.011,0.008-0.028,0.014-0.038c0.05-0.123,0.094-0.251,0.133-0.379
		c0.007-0.014,0.012-0.031,0.015-0.045c0.036-0.128,0.069-0.256,0.097-0.383c0.006-0.039,0.012-0.073,0.018-0.112
		c0.017-0.111,0.039-0.216,0.05-0.328c0.014-0.153,0.022-0.304,0.022-0.456v-82.949c0-2.512-2.036-4.547-4.546-4.547
		C255.521,175.467,253.486,177.502,253.486,180.014z M247.056,267.508l-42.057,42.06v-42.06H247.056z"/>
	<path fill="#12425F" d="M464,122.776c0-9.827-3.802-19.049-10.714-25.963L425.59,69.121c-2.593-2.59-5.505-4.748-8.66-6.428
		c-5.254-2.801-11.151-4.289-17.302-4.289c-6.236,0-12.228,1.539-17.543,4.424c-1.295,0.705-2.553,1.496-3.757,2.359
		c-1.645,1.173-3.21,2.481-4.66,3.934l-34.616,34.617l-25.806,25.802L113.18,329.609c-0.017,0.014-0.03,0.032-0.042,0.049
		c-0.061,0.061-0.116,0.127-0.173,0.188c-0.583,0.635-1.057,1.363-1.383,2.158l-28.264,68.639c-0.011,0.033-0.025,0.063-0.039,0.096
		l-20.162,48.962c-1.128,2.741-0.497,5.895,1.6,7.99c0.175,0.18,0.358,0.342,0.549,0.494c1.325,1.087,2.972,1.653,4.644,1.653
		c0.941,0,1.892-0.18,2.795-0.549l48.984-20.168c0.019-0.011,0.034-0.019,0.049-0.021l68.663-28.272
		c0.795-0.332,1.522-0.801,2.156-1.384c0.063-0.059,0.136-0.113,0.193-0.171c0.014-0.019,0.033-0.027,0.046-0.045l185.531-185.529
		l14.533-14.538c0.009-0.009,60.425-60.421,60.425-60.421C460.198,141.829,464,132.607,464,122.776z M442.896,138.355
		l-29.423,29.424l-58.847-58.849l29.427-29.424c0.525-0.527,1.077-1.022,1.64-1.485c0.248-0.2,0.508-0.373,0.76-0.562
		c0.332-0.247,0.655-0.504,0.988-0.728c0.368-0.243,0.746-0.454,1.123-0.672c0.243-0.142,0.478-0.295,0.719-0.425
		c0.535-0.281,1.084-0.533,1.637-0.771c0.095-0.038,0.18-0.087,0.274-0.125c2.633-1.081,5.487-1.651,8.434-1.651
		c2.948,0,5.806,0.568,8.439,1.651c0.074,0.029,0.14,0.069,0.213,0.098c0.574,0.245,1.146,0.508,1.699,0.8
		c0.225,0.119,0.439,0.263,0.658,0.391c0.396,0.227,0.798,0.45,1.179,0.704c0.323,0.215,0.63,0.46,0.944,0.696
		c0.271,0.197,0.549,0.382,0.809,0.593c0.563,0.463,1.109,0.955,1.637,1.484l27.695,27.693c3.617,3.62,5.818,8.307,6.309,13.383
		c0.067,0.723,0.104,1.456,0.104,2.195c0,0.737-0.036,1.47-0.104,2.193C448.716,130.045,446.519,134.735,442.896,138.355z
		 M182.925,381.789c-5.756-5.758-12.741-9.77-20.14-11.783l133.154-133.155c2.874-2.87,2.874-7.518,0-10.385
		c-2.865-2.867-7.518-2.867-10.384,0L152.401,359.624c-2.019-7.405-6.026-14.386-11.787-20.142c-2.815-2.817-5.957-5.24-9.326-7.212
		l187.154-187.152l24.231,24.232l-29.428,29.424c-2.865,2.869-2.865,7.518,0,10.385c1.434,1.433,3.316,2.15,5.196,2.15
		c1.877,0,3.757-0.717,5.19-2.15l29.422-29.426l24.23,24.233L190.138,391.118C188.16,387.747,185.741,384.603,182.925,381.789z
		 M92.698,416.437l13.268,13.274l-22.557,9.285L92.698,416.437z M120.68,423.654l-21.923-21.932l23.698-57.553
		c2.829,1.465,5.461,3.375,7.777,5.694c6.938,6.938,10.153,16.36,8.599,25.206c-0.413,2.358,0.347,4.768,2.041,6.466
		c1.692,1.689,4.104,2.454,6.465,2.042c8.843-1.556,18.265,1.657,25.204,8.597c2.317,2.314,4.232,4.947,5.697,7.778L120.68,423.654z
		 M387.676,193.578l-58.85-58.848l15.416-15.414l58.848,58.847L387.676,193.578z"/>
	<g>
		<polygon fill="#12425F" points="392.812,108.932 413.474,129.595 415.611,127.457 415.611,118.094 399.63,102.114 		"/>
		<path fill="#12425F" d="M389.953,250.257v111.717h-70.325c-29.8,0-54.045,24.243-54.045,54.043v70.325H80.435
			c-15.653,0-28.387-12.734-28.387-28.388V54.045c0-15.653,12.735-28.387,28.387-28.387h281.131c7.83,0,14.929,3.187,20.069,8.331
			c5.822-1.703,11.889-2.585,17.992-2.585c3.853,0,7.692,0.353,11.464,1.038C402.737,13.366,383.688,0,361.566,0H80.435
			C50.635,0,26.39,24.245,26.39,54.045v403.912c0,29.8,24.245,54.045,54.045,54.045h197.978c3.3,0,6.605-1.295,9.072-3.758
			l124.37-124.368c2.281-2.282,3.756-5.56,3.756-9.071V224.599L389.953,250.257z M291.241,468.201v-52.184
			c0-15.653,12.732-28.387,28.387-28.387h52.184C363.257,396.186,299.554,459.886,291.241,468.201z"/>
	</g>
</g>
</svg>
