<svg xmlns="http://www.w3.org/2000/svg" xmlns:xlink="http://www.w3.org/1999/xlink" version="1.1" style="enable-background:new 0 0 512 512;" xml:space="preserve" width="512" height="512"><rect id="backgroundrect" width="100%" height="100%" x="0" y="0" fill="none" stroke="none"/>


















<g class="currentLayer"><title>Layer 1</title><path d="M256,512C114.844,512,0,397.156,0,256S114.844,0,256,0s256,114.844,256,256S397.156,512,256,512z" id="svg_1" class="" fill-opacity="1" fill="#0fa761"/><path style="fill:#FFFFFF;" d="M216.7006669845581,377.414 c-4.518,0 -9.038,-1.725 -12.483,-5.173 L98.28666698455811,266.31 c-6.897,-6.892 -6.897,-18.073 0,-24.966 c6.888,-6.897 18.078,-6.897 24.966,0 l93.449,93.444 l181.724,-181.72 c6.888,-6.897 18.078,-6.897 24.966,0 c6.897,6.892 6.897,18.073 0,24.966 L229.1836669845581,372.241 C225.7396669845581,375.689 221.2186669845581,377.414 216.7006669845581,377.414 z" id="svg_3" class=""/><g id="svg_4">
</g><g id="svg_5">
</g><g id="svg_6">
</g><g id="svg_7">
</g><g id="svg_8">
</g><g id="svg_9">
</g><g id="svg_10">
</g><g id="svg_11">
</g><g id="svg_12">
</g><g id="svg_13">
</g><g id="svg_14">
</g><g id="svg_15">
</g><g id="svg_16">
</g><g id="svg_17">
</g><g id="svg_18">
</g></g></svg>