<svg xmlns="http://www.w3.org/2000/svg" xmlns:xlink="http://www.w3.org/1999/xlink" version="1.1" xml:space="preserve" width="512" height="512"><rect id="backgroundrect" width="100%" height="100%" x="0" y="0" fill="none" stroke="none"/>


















<g class="currentLayer"><title>Layer 1</title><path style="" d="M411.62,201.146l-31.689,29.048c-1.678,1.538-2.92,3.491-3.601,5.663l-14.867,47.39  c-0.273,0.871-0.454,1.77-0.539,2.679l-4.694,50.696c-0.184,1.981-0.821,3.892-1.863,5.586l-22.893,37.203l-26.739,42.266  c-2.925,4.623-8.443,6.906-13.779,5.701l-14.829-3.348c-4.826-1.089-8.608-4.837-9.741-9.654l-14.235-60.5  c-0.154-0.654-0.359-1.295-0.612-1.917l-22.057-54.141l-21.052-48.802c-0.908-2.105-1.24-4.413-0.963-6.689l3.193-26.189  c0.831-6.817,6.847-11.796,13.7-11.339l63.857,4.257c0.279,0.018,0.559,0.046,0.837,0.084l62.134,8.224  c4.255,0.563,8.512-1.021,11.364-4.23l3.533-3.975c6.928-7.794,2.256-20.163-8.095-21.431l-15.485-1.896  c-5.885-0.721-10.527-5.351-11.262-11.233l-1.819-14.549c-0.617-4.938,1.653-9.792,5.84-12.484l2.283-1.468  c8.502-5.466,7.731-18.133-1.371-22.527l-1.81-0.874c-4.292-2.072-9.376-1.616-13.23,1.187l-14.559,10.589  c-1.073,0.78-2.259,1.39-3.517,1.81l-43.847,14.615c-2.104,0.702-4.354,0.85-6.533,0.431l-43.957-8.453  c-3.658-0.704-7.442,0.205-10.383,2.492l-6.777,5.271c-4.196,3.264-9.962,3.628-14.534,0.918l-8.225-4.874  c-6.377-3.779-8.28-12.134-4.167-18.301l9.647-14.472c2.029-3.042,5.25-5.084,8.866-5.62l13.9-2.059  c4.872-0.722,8.911-4.148,10.418-8.837l4.201-13.07c1.536-4.778,5.697-8.236,10.676-8.872l37.274-4.758  c1.653-0.211,3.25-0.739,4.703-1.556l1.712-0.963c10.248-5.765,8.11-21.105-3.323-23.85l0,0  c-8.997-2.159-12.883-12.791-7.398-20.242l10.072-13.687c-3.118-0.117-6.242-0.196-9.385-0.196  c-129.968,0-236.362,100.876-245.193,228.602c8.822,4.266,18.527,8.859,19.791,9.04c1.637,0.234,21.785,0.146,34.195,0.068  c5.734-0.036,10.8,3.708,12.456,9.199l15.135,50.182c0.932,3.091,0.674,6.42-0.723,9.331l-21.01,43.773  c-0.853,1.777-1.288,3.721-1.274,5.691c0.075,9.924,0.351,41.617,0.824,50.844c45.069,51.988,111.595,84.872,185.8,84.872  c135.752,0,245.801-110.048,245.801-245.801c0-26.283-4.142-51.596-11.78-75.339l-72.68,17.443  C415.208,198.615,413.238,199.663,411.62,201.146z" id="svg_1" class="" fill="#0391fd" fill-opacity="1"/><g id="svg_2" class="" fill-opacity="1" fill="#0f71d3">
	<path d="M263.79369838809964,10.395 L253.72269838809967,24.082 c-5.483,7.452 -1.597,18.083 7.398,20.242 l0,0 c11.433,2.744 13.57,18.085 3.323,23.85 l-1.7120000000000002,0.9630000000000001 c-1.452,0.8170000000000001 -3.05,1.346 -4.703,1.556 l-37.274,4.758 c-4.978,0.6350000000000001 -9.14,4.094 -10.676,8.872 l-4.201,13.07 c-1.5070000000000001,4.689 -5.546,8.114 -10.418,8.837 l-13.9,2.059 c-3.617,0.535 -6.839,2.577 -8.866,5.62 l-9.647,14.472 c-4.111,6.167 -2.209,14.523 4.167,18.301 l8.225,4.8740000000000006 c4.573,2.71 10.338000000000001,2.346 14.534,-0.918 l6.777,-5.271 c2.94,-2.2880000000000003 6.725,-3.195 10.383000000000001,-2.492 l43.957,8.453 c2.179,0.41900000000000004 4.428,0.27 6.533,-0.43100000000000005 l43.847,-14.615 c1.259,-0.41900000000000004 2.4450000000000003,-1.03 3.517,-1.81 l14.559,-10.589 c3.854,-2.8040000000000003 8.939,-3.26 13.23,-1.187 l1.81,0.8740000000000001 c9.102,4.394 9.873,17.062 1.371,22.527 l-2.283,1.468 c-4.186,2.692 -6.457,7.545 -5.84,12.484 l1.819,14.549 c0.7350000000000001,5.883 5.377,10.513 11.262,11.233 l15.485,1.8960000000000001 c10.351,1.268 15.023,13.636 8.095,21.431 l-3.533,3.975 c-2.8520000000000003,3.208 -7.109,4.793 -11.364,4.23 l-62.134,-8.224 c-0.278,-0.037000000000000005 -0.557,-0.06400000000000002 -0.8370000000000001,-0.08400000000000002 l-63.857,-4.257 c-6.853,-0.457 -12.867,4.522 -13.7,11.339 l-3.193,26.189 c-0.277,2.275 0.05500000000000001,4.584 0.9630000000000001,6.689 l21.056,48.802 l22.058,54.14 c0.254,0.6220000000000001 0.458,1.264 0.6120000000000001,1.917 l14.235,60.5 c1.133,4.816 4.915,8.564 9.741,9.654 l14.829,3.348 c5.336,1.206 10.854,-1.078 13.779,-5.7010000000000005 l26.738,-42.264 l22.893,-37.202 c1.042,-1.6940000000000002 1.6800000000000002,-3.605 1.863,-5.586 l4.694,-50.696 c0.08500000000000002,-0.91 0.265,-1.807 0.539,-2.6790000000000003 l14.867,-47.39 c0.6810000000000002,-2.171 1.924,-4.125 3.601,-5.663 l31.689,-29.048 c1.618,-1.483 3.587,-2.5300000000000002 5.722,-3.042 l72.68,-17.443 C457.53369838809965,84.606 369.1526983880997,14.35 263.79369838809964,10.395 z" id="svg_3" fill="#0f71d3"/>
	<path d="M69.06269838809968,360.394 l21.01,-43.773 c1.397,-2.911 1.6550000000000002,-6.24 0.7230000000000001,-9.331 l-15.135,-50.182 c-1.6550000000000002,-5.49 -6.721,-9.235 -12.456,-9.199 c-12.409,0.07800000000000001 -32.558,0.16500000000000004 -34.195,-0.06800000000000002 c-1.264,-0.18100000000000002 -10.968,-4.773 -19.791,-9.04 c-0.39300000000000007,5.683 -0.6080000000000001,11.416 -0.6080000000000001,17.199 c0,61.546 22.621,117.809 60.002,160.929 c-0.47300000000000003,-9.226 -0.7490000000000001,-40.92 -0.8240000000000001,-50.844 C67.77469838809967,364.114 68.20869838809968,362.171 69.06269838809968,360.394 z" id="svg_4" fill="#0f71d3"/>
</g><g id="svg_5" class="" stroke="none" stroke-dasharray="none">
	<path style="fill:#3D3D3D;" d="M501.31730161190035,177.537 c-15.962,-49.618 -46.354,-92.716 -87.893,-124.633 c-42.266,-32.476 -92.777,-50.7 -146.074,-52.701 h-0.0010000000000000002 l0,0 C263.6603016119003,0.06400000000000002 260.55830161190033,0 257.58730161190033,0 C192.33030161190032,0 130.18130161190032,24.562 82.58930161190032,69.162 C35.22630161190033,113.546 6.68430161190033,173.54 2.2193016119003297,238.094 c0,0.0010000000000000002 0,0.0010000000000000002 0,0.0010000000000000002 C1.8003016119003297,244.164 1.5873016119003296,250.187 1.5873016119003296,256 c0,61.597 22.194,121.122 62.495,167.61 c0.003000000000000001,0.004000000000000001 0.007000000000000002,0.007000000000000002 0.011000000000000003,0.011000000000000003 C112.78930161190033,479.788 183.31330161190033,512 257.58730161190033,512 c68.381,0 132.667,-26.628 181.019,-74.981 C486.95930161190034,388.667 513.5873016119003,324.381 513.5873016119003,256 C513.5873016119003,229.244 509.4583016119003,202.846 501.31730161190035,177.537 zM478.27630161190035,173.371 l-61.727,14.813 c-3.806,0.914 -7.345,2.795 -10.234,5.442 l-31.69,29.048 c-2.997,2.747 -5.223,6.249 -6.439,10.128 l-14.866,47.385 c-0.48900000000000005,1.5510000000000002 -0.812,3.165 -0.9630000000000001,4.797 l-4.695,50.697 c-0.03900000000000001,0.41600000000000004 -0.17500000000000002,0.8240000000000001 -0.3950000000000001,1.18 l-22.861,37.149 l-26.705,42.21 c-0.6170000000000001,0.976 -1.79,1.458 -2.9130000000000003,1.207 l-14.83,-3.349 c-1.013,-0.22800000000000004 -1.8210000000000002,-1.029 -2.059,-2.04 l-14.233,-60.491 c-0.273,-1.163 -0.6410000000000001,-2.316 -1.096,-3.439 l-22.058,-54.14 c-0.025000000000000005,-0.06400000000000002 -0.05300000000000001,-0.128 -0.08100000000000002,-0.19200000000000003 l-21.052,-48.804 c-0.19200000000000003,-0.44300000000000006 -0.261,-0.93 -0.202,-1.413 l3.193,-26.187 c0.16800000000000004,-1.3800000000000001 1.34,-2.404 2.712,-2.404 c0.06100000000000001,0 0.12200000000000001,0.0020000000000000005 0.18500000000000003,0.006000000000000002 l63.85,4.257 c0.06100000000000001,0.004000000000000001 0.12100000000000001,0.009000000000000003 0.18500000000000003,0.017000000000000005 l62.135,8.225 c7.62,1.005 15.216,-1.8210000000000002 20.324,-7.564 l3.535,-3.976 c5.732,-6.449 7.4,-15.47 4.35,-23.543 c-3.049,-8.073 -10.263,-13.739 -18.83,-14.788 l-15.484,-1.895 c-1.246,-0.15200000000000002 -2.227,-1.129 -2.382,-2.375 l-1.819,-14.55 c-0.13,-1.037 0.35500000000000004,-2.074 1.233,-2.6390000000000002 l2.285,-1.468 c7.14,-4.591 11.097,-12.39 10.581,-20.865 c-0.516,-8.473 -5.388,-15.736 -13.033,-19.426 l-1.812,-0.8750000000000001 c-7.689,-3.713 -16.757,-2.899 -23.662,2.124 l-14.558,10.589 c-0.22700000000000004,0.16500000000000004 -0.47800000000000004,0.29400000000000004 -0.7440000000000001,0.38300000000000006 l-43.846000000000004,14.615 c-0.44300000000000006,0.14800000000000002 -0.921,0.18100000000000002 -1.3820000000000001,0.09100000000000003 l-43.959,-8.453 c-6.537,-1.256 -13.309,0.36600000000000005 -18.571,4.457 l-6.7780000000000005,5.272 c-0.8930000000000001,0.6940000000000002 -2.1,0.77 -3.072,0.19200000000000003 l-8.224,-4.872 c-0.8350000000000001,-0.49500000000000005 -1.154,-1.222 -1.272,-1.745 c-0.11900000000000002,-0.523 -0.14900000000000002,-1.3170000000000002 0.39100000000000007,-2.126 l9.647,-14.471 c0.42800000000000005,-0.6420000000000001 1.112,-1.075 1.8760000000000001,-1.188 l13.898,-2.059 c8.778,-1.299 15.918,-7.356 18.635,-15.804 l4.201,-13.07 c0.32200000000000006,-1.006 1.21,-1.742 2.257,-1.8760000000000001 l37.274,-4.758 c2.971,-0.37900000000000006 5.801,-1.3170000000000002 8.409,-2.783 l1.717,-0.9640000000000001 c8.351,-4.698 12.892,-13.865 11.57,-23.354 c-1.322,-9.489 -8.196,-17.065 -17.513,-19.302 c-1.179,-0.28300000000000003 -1.701,-1.092 -1.931,-1.722 c-0.23,-0.6280000000000001 -0.35400000000000004,-1.584 0.36500000000000005,-2.56 l6.8260000000000005,-9.278 C364.6123016119003,26.454 445.82230161190034,86.722 478.27630161190035,173.371 zM21.99830161190033,254.646 c6.489,2.967 7.477,3.111 8.744,3.291 c1.109,0.15800000000000003 2.6310000000000002,0.37400000000000005 35.704,0.171 c0.006000000000000002,0 0.012000000000000002,0 0.018000000000000002,0 c1.211,0 2.2560000000000002,0.779 2.608,1.944 l15.135,50.181 c0.19700000000000004,0.6560000000000001 0.14400000000000002,1.356 -0.15300000000000002,1.975 l-21.011,43.773 c-1.516,3.16 -2.303,6.679 -2.276,10.181 c0.036000000000000004,4.712 0.09800000000000003,11.954 0.18700000000000003,19.62 C35.66730161190033,347.483 21.98530161190033,302.383 21.98530161190033,256 C21.98530161190033,255.552 21.99530161190033,255.096 21.99830161190033,254.646 zM257.58730161190033,491.602 c-67.179,0 -131.029,-28.636 -175.752,-78.694 c-0.38100000000000006,-11.912 -0.6080000000000001,-38.354 -0.6720000000000002,-46.9 c-0.003000000000000001,-0.41700000000000004 0.08800000000000002,-0.8220000000000001 0.269,-1.2 l21.011,-43.772 c2.505,-5.219 2.964,-11.147 1.2930000000000001,-16.69 l-15.135,-50.181 c-2.926,-9.707 -12.017,-16.453 -22.137,-16.453 c-0.04900000000000001,0 -0.09900000000000003,0 -0.14700000000000002,0 c-22.442,0.14 -29.766000000000002,0.07300000000000001 -32.15,0.017000000000000005 c-1.259,-0.526 -4.229,-1.839 -11.023,-5.077 C34.58230161190033,116.579 130.72930161190033,25.85 247.02530161190032,20.642 c-3.185,5.807 -3.749,12.725 -1.4380000000000002,19.047 c2.668,7.299 8.772,12.739 16.329,14.553 c1.499,0.36000000000000004 1.953,1.439 2.07,2.282 c0.11700000000000002,0.8420000000000001 -0.024000000000000004,2.006 -1.366,2.7600000000000002 l-1.7160000000000002,0.9640000000000001 c-0.30900000000000005,0.17300000000000001 -0.6440000000000001,0.28400000000000003 -0.995,0.32800000000000007 l-37.274,4.758 c-8.864,1.1320000000000001 -16.359,7.361 -19.094,15.869 l-4.201,13.069 c-0.32000000000000006,0.998 -1.165,1.714 -2.202,1.868 L183.23930161190032,98.2 c-6.458,0.9570000000000001 -12.238,4.62 -15.859,10.051 l-9.648,14.471 c-3.505,5.259 -4.71,11.809 -3.307,17.97 c1.403,6.161 5.3260000000000005,11.541 10.762,14.764 l8.224,4.872 c8.237,4.881 18.44,4.236 25.996,-1.6400000000000001 l6.775,-5.27 c0.6220000000000001,-0.48500000000000004 1.424,-0.6750000000000002 2.197,-0.528 l40.694,7.825 l3.749,14.246 c1.206,4.577 5.335,7.607 9.857,7.607 c0.8600000000000001,0 1.733,-0.10900000000000001 2.603,-0.3390000000000001 c5.447,-1.433 8.701,-7.012 7.268,-12.459 l-2.9130000000000003,-11.069 l38.233,-12.744 c2.252,-0.7510000000000001 4.368,-1.84 6.291,-3.237 l14.56,-10.59 c0.8160000000000001,-0.5930000000000001 1.8880000000000001,-0.6900000000000002 2.795,-0.252 l1.811,0.8750000000000001 c1.193,0.5750000000000001 1.497,1.5670000000000002 1.542,2.297 c0.04400000000000001,0.7290000000000001 -0.138,1.75 -1.25,2.466 l-2.284,1.467 c-7.443,4.784 -11.542,13.55 -10.445,22.329 l1.819,14.549 c1.3170000000000002,10.538 9.599,18.801 20.143,20.092 l15.484,1.895 c1.357,0.16600000000000004 1.96,1.042 2.227,1.749 c0.266,0.7050000000000001 0.3940000000000001,1.7610000000000001 -0.514,2.782 l-3.534,3.975 c-0.6040000000000001,0.6790000000000002 -1.509,1.005 -2.402,0.8950000000000001 l-62.132,-8.224 c-0.49500000000000005,-0.06500000000000002 -0.992,-0.11400000000000002 -1.5,-0.14900000000000002 l-63.855,-4.257 c-12.266,-0.8140000000000001 -23.016,8.09 -24.503,20.282 l-3.192,26.185 c-0.49700000000000005,4.067 0.09900000000000003,8.206 1.722,11.965 l21.011,48.708 l22.014,54.034 c0.05600000000000001,0.136 0.1,0.272 0.133,0.41400000000000003 l14.235,60.5 c2.013,8.553 8.852,15.329 17.422,17.265 l14.829,3.348 c1.689,0.38100000000000006 3.3890000000000002,0.5670000000000001 5.074,0.5670000000000001 c7.814,0 15.277,-3.977 19.571,-10.763 l26.739,-42.264 c0.021000000000000005,-0.036000000000000004 0.04500000000000001,-0.07100000000000001 0.06600000000000002,-0.10700000000000001 l22.892,-37.201 c1.855,-3.014 3.008,-6.469 3.334,-9.993 l4.695,-50.692 c0.018000000000000002,-0.19600000000000004 0.05600000000000001,-0.38700000000000007 0.11300000000000002,-0.5710000000000001 l14.867,-47.39 c0.14500000000000002,-0.459 0.40700000000000003,-0.8730000000000001 0.7610000000000001,-1.198 l31.688,-29.046 c0.3420000000000001,-0.31400000000000006 0.7600000000000001,-0.535 1.212,-0.6450000000000001 l63.297,-15.192 c5.695,20.508 8.582,41.713 8.582,63.173 C493.1893016119003,385.911 387.49830161190033,491.602 257.58730161190033,491.602 z" id="svg_6" stroke="none" stroke-dasharray="none" stroke-opacity="1"/>
	<path style="fill:#3D3D3D;" d="M380.3933016119003,372.871 c-4.739,-3.046 -11.049,-1.6750000000000003 -14.094,3.065 l-18.359,28.558 c-3.045,4.739 -1.6750000000000003,11.048 3.065,14.094 c1.706,1.096 3.617,1.621 5.504,1.621 c3.355,0 6.641,-1.653 8.59,-4.686 l18.359,-28.558 C386.5033016119003,382.227 385.13230161190035,375.917 380.3933016119003,372.871 z" id="svg_7" stroke="none" stroke-dasharray="none" stroke-opacity="1"/>
	<path style="fill:#3D3D3D;" d="M265.9993016119003,280.677 c-2.145,-5.209 -8.103,-7.692 -13.315,-5.547 c-5.208,2.146 -7.692,8.105 -5.547,13.315 l21.417,52.013 c1.622,3.938 5.425,6.318 9.435,6.318 c1.294,0 2.609,-0.24800000000000003 3.88,-0.771 c5.208,-2.146 7.692,-8.105 5.547,-13.315 L265.9993016119003,280.677 z" id="svg_8" stroke="none" stroke-dasharray="none" stroke-opacity="1"/>
	<path style="fill:#3D3D3D;" d="M253.39930161190034,250.075 l-1.6800000000000002,-4.08 c-2.145,-5.207 -8.103,-7.6930000000000005 -13.315,-5.546 c-5.208,2.145 -7.691,8.105 -5.546,13.315 l1.6800000000000002,4.08 c1.622,3.9370000000000003 5.424,6.317 9.434,6.317 c1.294,0 2.6100000000000003,-0.24800000000000003 3.8810000000000002,-0.772 C253.06230161190032,261.246 255.54430161190032,255.285 253.39930161190034,250.075 z" id="svg_9" stroke="none" stroke-dasharray="none" stroke-opacity="1"/>
</g><g id="svg_10">
</g><g id="svg_11">
</g><g id="svg_12">
</g><g id="svg_13">
</g><g id="svg_14">
</g><g id="svg_15">
</g><g id="svg_16">
</g><g id="svg_17">
</g><g id="svg_18">
</g><g id="svg_19">
</g><g id="svg_20">
</g><g id="svg_21">
</g><g id="svg_22">
</g><g id="svg_23">
</g><g id="svg_24">
</g></g></svg>