<svg xmlns="http://www.w3.org/2000/svg" xmlns:xlink="http://www.w3.org/1999/xlink" version="1.1" xml:space="preserve" width="58.57553958414036" height="58.57553958414036"><rect id="backgroundrect" width="100%" height="100%" x="0" y="0" fill="none" stroke="none" class=""/>






















<g class="currentLayer"><title>Layer 1</title><rect x="2.589928150177002" y="2.5143885612487793" style="fill:#ECF0F1;" width="53.251799324281976" height="53.258990025520845" id="svg_1" class=""/><g id="svg_8">
</g><g id="svg_9">
</g><g id="svg_10">
</g><g id="svg_11">
</g><g id="svg_12">
</g><g id="svg_13">
</g><g id="svg_14">
</g><g id="svg_15">
</g><g id="svg_16">
</g><g id="svg_17">
</g><g id="svg_18">
</g><g id="svg_19">
</g><g id="svg_20">
</g><g id="svg_21">
</g><g id="svg_22">
</g><g class="" fill-opacity="1" fill="#324a5e" stroke="#324a5e" stroke-opacity="1" stroke-width="2"><path d="M15.431654691696167,18.946043252944946 c-0.552,0 -1,-0.4470000000000014 -1,-1 v-4 c0,-0.553 0.4480000000000014,-1 1,-1 s1,0.4470000000000014 1,1 v4 C16.431654691696167,18.499043252944947 15.983654691696167,18.946043252944946 15.431654691696167,18.946043252944946 z" id="svg_2" class="" fill="#324a5e" stroke="#324a5e" stroke-opacity="1" stroke-width="2"/><path d="M43.43165469169617,14.946043252944946 H15.431654691696167 c-0.552,0 -1,-0.4470000000000014 -1,-1 s0.4480000000000014,-1 1,-1 h28 c0.552,0 1,0.4470000000000014 1,1 S43.983654691696174,14.946043252944946 43.43165469169617,14.946043252944946 z" id="svg_3" class="" fill="#324a5e" stroke="#324a5e" stroke-opacity="1" stroke-width="2"/><path d="M43.43165469169617,18.946043252944946 c-0.552,0 -1,-0.4470000000000014 -1,-1 v-4 c0,-0.553 0.4480000000000014,-1 1,-1 s1,0.4470000000000014 1,1 v4 C44.43165469169617,18.499043252944947 43.983654691696174,18.946043252944946 43.43165469169617,18.946043252944946 z" id="svg_4" class="" fill="#324a5e" stroke="#324a5e" stroke-opacity="1" stroke-width="2"/><path d="M29.431654691696167,45.946043252944946 c-0.552,0 -1,-0.4470000000000014 -1,-1 v-31 c0,-0.553 0.4480000000000014,-1 1,-1 s1,0.4470000000000014 1,1 v31 C30.431654691696167,45.499043252944944 29.983654691696167,45.946043252944946 29.431654691696167,45.946043252944946 z" id="svg_5" class="" fill="#324a5e" stroke="#324a5e" stroke-opacity="1" stroke-width="2"/><path d="M35.43165469169617,45.946043252944946 H23.431654691696167 c-0.552,0 -1,-0.4470000000000014 -1,-1 s0.4480000000000014,-1 1,-1 h12 c0.552,0 1,0.4470000000000014 1,1 S35.983654691696174,45.946043252944946 35.43165469169617,45.946043252944946 z" id="svg_6" class="" fill="#324a5e" stroke="#324a5e" stroke-opacity="1" stroke-width="2"/></g></g></svg>