<svg xmlns="http://www.w3.org/2000/svg" xmlns:xlink="http://www.w3.org/1999/xlink" version="1.1" style="enable-background:new 0 0 417.606 417.606;" xml:space="preserve" width="417.606" height="417.606"><rect id="backgroundrect" width="100%" height="100%" x="0" y="0" fill="none" stroke="none"/>
















<g class="currentLayer"><title>Layer 1</title><g id="svg_1" class="selected" fill-opacity="1" fill="#e43e8e">
	<path d="M251.906,331.41c-91.379,0-165.709-74.338-165.709-165.705c0-91.371,74.334-165.705,165.709-165.705   c91.366,0,165.7,74.334,165.7,165.705C417.606,257.072,343.272,331.41,251.906,331.41z M251.906,61.975   c-57.203,0-103.735,46.532-103.735,103.735c0,57.195,46.532,103.735,103.735,103.735c57.199,0,103.735-46.537,103.735-103.735   C355.637,108.507,309.105,61.975,251.906,61.975z" id="svg_2" fill="#e43e8e"/>
	
		<rect x="58.31399917602539" y="233.0780029296875" transform="matrix(-0.7071,-0.7071,0.7071,-0.7071,-79.7284,623.65) " width="61.96799850463867" height="190.51800537109375" id="svg_3" fill="#e43e8e"/>
	
		<rect x="-5.991000175476074" y="297.3290100097656" transform="matrix(-0.7071,-0.7071,0.7071,-0.7071,-79.764,623.5881) " width="190.51800537109375" height="61.96799850463867" id="svg_4" fill="#e43e8e"/>
</g><g id="svg_5">
</g><g id="svg_6">
</g><g id="svg_7">
</g><g id="svg_8">
</g><g id="svg_9">
</g><g id="svg_10">
</g><g id="svg_11">
</g><g id="svg_12">
</g><g id="svg_13">
</g><g id="svg_14">
</g><g id="svg_15">
</g><g id="svg_16">
</g><g id="svg_17">
</g><g id="svg_18">
</g><g id="svg_19">
</g></g></svg>