<svg xmlns="http://www.w3.org/2000/svg" xmlns:xlink="http://www.w3.org/1999/xlink" version="1.1" width="32.46280977665895" height="29.983471011848415" style="enable-background:new 0 0 28 28;" xml:space="preserve"><rect id="backgroundrect" width="100%" height="100%" x="0" y="0" fill="none" stroke="none" class=""/>
















<g class="currentLayer"><title>Layer 1</title><path fill="#f2f3f4" fill-opacity="1" stroke="none" stroke-opacity="1" stroke-width="1" stroke-dasharray="none" stroke-linejoin="miter" stroke-linecap="butt" stroke-dashoffset="" fill-rule="nonzero" opacity="1" marker-start="" marker-mid="" marker-end="" d="M4.652892380952835,15.161156997084618 C4.652892380952835,8.807565836863624 9.799301220731842,3.6611569970846176 16.152892380952835,3.6611569970846176 C22.50648354117383,3.6611569970846176 27.652892380952835,8.807565836863624 27.652892380952835,15.161156997084618 C27.652892380952835,21.51474815730561 22.50648354117383,26.661156997084618 16.152892380952835,26.661156997084618 C9.799301220731842,26.661156997084618 4.652892380952835,21.51474815730561 4.652892380952835,15.161156997084618 z" id="svg_18" class=""/><g id="svg_1" class="">
	<path d="M26.212049392938617,5.092735503077507 C23.568049392938615,2.447735503077507 20.052049392938613,0.991735503077509 16.314049392938614,0.991735503077509 c-3.739,0 -7.255,1.456 -9.899000000000001,4.101 C3.7700493929386134,7.736735503077509 2.314049392938614,11.252735503077506 2.314049392938614,14.991735503077507 s1.456,7.255 4.101,9.898 C9.060049392938614,27.535735503077508 12.575049392938613,28.991735503077507 16.314049392938614,28.991735503077507 c3.738,0 7.255,-1.456 9.898,-4.102 C28.858049392938614,22.246735503077506 30.314049392938614,18.730735503077508 30.314049392938614,14.991735503077507 S28.858049392938614,7.736735503077509 26.212049392938617,5.092735503077507 zM5.314049392938615,14.991735503077507 c0,-2.938 1.1440000000000001,-5.7010000000000005 3.222,-7.7780000000000005 C10.614049392938615,5.136735503077507 13.377049392938615,3.991735503077507 16.314049392938614,3.991735503077507 c2.432,0 4.734,0.794 6.639,2.241 L7.555049392938615,21.630735503077506 C6.108049392938614,19.727735503077508 5.314049392938615,17.423735503077506 5.314049392938615,14.991735503077507 zM24.091049392938615,22.770735503077507 c-2.077,2.078 -4.84,3.222 -7.777,3.222 c-2.432,0 -4.735,-0.794 -6.638,-2.241 L25.072049392938613,8.355735503077508 c1.447,1.9020000000000001 2.241,4.207 2.241,6.638 C27.314049392938614,17.930735503077507 26.169049392938614,20.692735503077508 24.091049392938615,22.770735503077507 z" fill="#ed446e" id="svg_2"/>
</g><g id="svg_3">
</g><g id="svg_4">
</g><g id="svg_5">
</g><g id="svg_6">
</g><g id="svg_7">
</g><g id="svg_8">
</g><g id="svg_9">
</g><g id="svg_10">
</g><g id="svg_11">
</g><g id="svg_12">
</g><g id="svg_13">
</g><g id="svg_14">
</g><g id="svg_15">
</g><g id="svg_16">
</g><g id="svg_17">
</g></g></svg>