<svg xmlns="http://www.w3.org/2000/svg" xmlns:xlink="http://www.w3.org/1999/xlink" version="1.1" width="612" height="612" style="enable-background:new 0 0 612 612;" xml:space="preserve"><rect id="backgroundrect" width="100%" height="100%" x="0" y="0" fill="none" stroke="none"/>
















<g class="currentLayer"><title>Layer 1</title><g id="svg_1" class="selected" fill-opacity="1" fill="#1e5c9a">
	<g id="Graduation_x5F_Cap" fill="#1e5c9a">
		<g id="svg_2" fill="#1e5c9a">
			<path d="M593.198,207.57l-272-136C316.608,69.275,311.457,68,306,68s-10.608,1.275-15.198,3.57l-272,136     C7.65,213.146,0,224.689,0,238s7.65,24.854,18.802,30.43L34,276.029v119.697C23.868,401.608,17,412.454,17,425     c0,18.785,15.232,34,34,34s34-15.215,34-34c0-12.546-6.868-23.392-17-29.291V293.012l51,25.5V425c0,65.722,83.725,119,187,119     c103.275,0,187-53.278,187-119V318.529l100.198-50.099C604.35,262.854,612,251.311,612,238S604.35,213.146,593.198,207.57z      M442,425c0,31.45-59.398,68-136,68c-76.602,0-136-36.55-136-68v-80.988l120.802,60.418c4.59,2.295,9.741,3.57,15.198,3.57     s10.608-1.275,15.198-3.57L442,344.012V425z M306,355.011L71.978,238L306,120.989L540.022,238L306,355.011z" fill="#1e5c9a" id="svg_3"/>
		</g>
	</g>
</g><g id="svg_4">
</g><g id="svg_5">
</g><g id="svg_6">
</g><g id="svg_7">
</g><g id="svg_8">
</g><g id="svg_9">
</g><g id="svg_10">
</g><g id="svg_11">
</g><g id="svg_12">
</g><g id="svg_13">
</g><g id="svg_14">
</g><g id="svg_15">
</g><g id="svg_16">
</g><g id="svg_17">
</g><g id="svg_18">
</g></g></svg>