<svg xmlns="http://www.w3.org/2000/svg" xmlns:xlink="http://www.w3.org/1999/xlink" version="1.1" id="Layer_1" x="0px" y="0px" width="100px" height="100px" viewBox="0 0 100 100" enable-background="new 0 0 100 100" xml:space="preserve">

<g id="omedf">
	<path fill="#082838" d="M89.033,54.102L58.928,36.972c-5.541-3.127-12.314-3.127-17.854,0L10.967,54.102   c-4.573,2.615-7.409,7.457-7.469,12.719c0.06,5.261,2.896,10.102,7.469,12.717l30.105,17.13c2.719,1.558,5.795,2.381,8.929,2.39   c3.132-0.009,6.208-0.832,8.927-2.39l30.105-17.128c4.574-2.616,7.41-7.458,7.469-12.719   C96.443,61.559,93.607,56.717,89.033,54.102z"/>
	<path fill="#2A73B5" d="M89.033,37.214L58.928,20.085c-5.541-3.127-12.314-3.127-17.854,0L10.967,37.214   c-4.573,2.616-7.409,7.458-7.469,12.719c0.06,5.26,2.896,10.102,7.469,12.717l30.105,17.129c2.719,1.558,5.795,2.382,8.929,2.389   c3.132-0.007,6.208-0.831,8.927-2.389l30.105-17.127c4.574-2.616,7.41-7.459,7.469-12.718   C96.443,44.671,93.607,39.831,89.033,37.214z"/>
	
	<path opacity="0.8" fill="#FFFFFF" enable-background="new    " d="M89.033,20.419L58.928,3.291   c-5.541-3.127-12.314-3.127-17.854,0L10.967,20.419c-4.573,2.616-7.409,7.458-7.469,12.718c0.06,5.26,2.896,10.102,7.469,12.718   l30.105,17.129c2.719,1.557,5.796,2.38,8.929,2.388c3.132-0.008,6.208-0.831,8.927-2.388l30.105-17.128   c4.574-2.616,7.41-7.458,7.469-12.717C96.443,27.877,93.607,23.035,89.033,20.419z"/>
</g>

</svg>
