<?xml version="1.0" encoding="utf-8"?>
<!-- Generator: Adobe Illustrator 16.0.0, SVG Export Plug-In . SVG Version: 6.00 Build 0)  -->
<!DOCTYPE svg PUBLIC "-//W3C//DTD SVG 1.1//EN" "http://www.w3.org/Graphics/SVG/1.1/DTD/svg11.dtd">
<svg version="1.1" id="Layer_1" xmlns="http://www.w3.org/2000/svg" xmlns:xlink="http://www.w3.org/1999/xlink" x="0px" y="0px"
	 width="98.605px" height="100.285px" viewBox="122.082 94 98.605 100.285" enable-background="new 122.082 94 98.605 100.285"
	 xml:space="preserve">
<g>
	<g id="svg_1">
		<path id="svg_2" fill="#93ABC8" d="M149.755,146.229c0.143-0.408,0.306-0.857,0.49-1.327l0,0l0,0
			c0.776-1.92,2.063-4.267,4.063-6.369c9.392-7.207,19.232-34.297,19.232-34.297s-1.532-9.819,3.062-9.819
			s15.516,3.063,8.963,22.926c-6.553,19.884,0,16.821,0,16.821c1.511-0.347,2.899-0.633,4.226-0.857l0,0
			c0,0,18.926-4.247,25.908,2.144c5.594,5.104,1.245,11.84,1.245,11.84s7.86,7.002-0.143,15.372c0,0,5.125,8.472-3.879,15.229
			c0,0,4.186,11.657-12.535,15.208c-4.92,1.042-11.106,1-16.945,0.552c-14.598,0.305-29.114-1.592-29.114-1.592l-9.391-40.85
			C147.774,149.496,149.122,147.515,149.755,146.229z M122.54,151.782l-0.021,40.828h22.192c1.981,0,3.267-1.571,2.858-3.511
			l-7.105-33.807c-0.409-1.939-2.348-3.511-4.328-3.511H122.54L122.54,151.782z"/>
	</g>
</g>
</svg>
