<svg xmlns="http://www.w3.org/2000/svg" xmlns:xlink="http://www.w3.org/1999/xlink" version="1.1" style="enable-background:new 0 0 512 512;" xml:space="preserve" width="512" height="512"><rect id="backgroundrect" width="100%" height="100%" x="0" y="0" fill="none" stroke="none"/>
















<g class="currentLayer"><title>Layer 1</title><g id="svg_1" class="selected" fill-opacity="1" fill="#1e5c9a">
	<g id="svg_2" fill="#1e5c9a">
		<g id="svg_3" fill="#1e5c9a">
			<circle cx="256" cy="256" r="85.33300018310547" fill="#1e5c9a" id="svg_4"/>
			<path d="M501.333,234.667h-54.592c-9.875-88.837-80.561-159.533-169.408-169.409V10.667C277.333,4.771,272.563,0,266.667,0     h-21.333c-5.896,0-10.667,4.771-10.667,10.667v54.591C145.82,75.134,75.134,145.829,65.259,234.667H10.667     C4.771,234.667,0,239.438,0,245.333v21.333c0,5.896,4.771,10.667,10.667,10.667h54.592     c9.875,88.837,80.561,159.533,169.408,169.409v54.591c0,5.896,4.771,10.667,10.667,10.667h21.333     c5.896,0,10.667-4.771,10.667-10.667v-54.591c88.846-9.876,159.533-80.572,169.408-169.409h54.592     c5.896,0,10.667-4.771,10.667-10.667v-21.333C512,239.438,507.229,234.667,501.333,234.667z M256,405.333     c-82.333,0-149.333-66.99-149.333-149.333s67-149.333,149.333-149.333S405.333,173.656,405.333,256S338.333,405.333,256,405.333z     " fill="#1e5c9a" id="svg_5"/>
		</g>
	</g>
</g><g id="svg_6">
</g><g id="svg_7">
</g><g id="svg_8">
</g><g id="svg_9">
</g><g id="svg_10">
</g><g id="svg_11">
</g><g id="svg_12">
</g><g id="svg_13">
</g><g id="svg_14">
</g><g id="svg_15">
</g><g id="svg_16">
</g><g id="svg_17">
</g><g id="svg_18">
</g><g id="svg_19">
</g><g id="svg_20">
</g></g></svg>