<svg xmlns="http://www.w3.org/2000/svg" xmlns:xlink="http://www.w3.org/1999/xlink" version="1.1" style="enable-background:new 0 0 426.667 426.667;" xml:space="preserve" width="426.667" height="426.667"><rect id="backgroundrect" width="100%" height="100%" x="0" y="0" fill="none" stroke="none"/>
















<g class="currentLayer"><title>Layer 1</title><g id="svg_1" class="" fill-opacity="1" fill="#0f71d3">
	<path d="M165.705,426.667C74.334,426.667,0,352.333,0,260.962c0-91.366,74.334-165.7,165.705-165.7   c91.366,0,165.7,74.334,165.7,165.7C331.405,352.333,257.071,426.667,165.705,426.667z M165.705,157.235   c-57.199,0-103.735,46.532-103.735,103.731s46.532,103.735,103.735,103.735c57.195,0,103.735-46.532,103.735-103.735   C269.436,203.767,222.899,157.235,165.705,157.235z" id="svg_2" fill="#0f71d3"/>
	<polygon points="426.667,165.705 364.698,165.705 364.698,61.969 260.962,61.969 260.962,0 426.667,0  " id="svg_3" fill="#0f71d3"/>
	
		<rect x="297.32501220703125" y="3.0920000076293945" transform="matrix(-0.7071,-0.7071,0.7071,-0.7071,490.914,400.0457) " width="61.96799850463867" height="190.51800537109375" id="svg_4" fill="#0f71d3"/>
</g><g id="svg_5">
</g><g id="svg_6">
</g><g id="svg_7">
</g><g id="svg_8">
</g><g id="svg_9">
</g><g id="svg_10">
</g><g id="svg_11">
</g><g id="svg_12">
</g><g id="svg_13">
</g><g id="svg_14">
</g><g id="svg_15">
</g><g id="svg_16">
</g><g id="svg_17">
</g><g id="svg_18">
</g><g id="svg_19">
</g></g></svg>