<?xml version="1.0" encoding="iso-8859-1"?>
<!-- Generator: Adobe Illustrator 19.0.0, SVG Export Plug-In . SVG Version: 6.00 Build 0)  -->
<svg xmlns="http://www.w3.org/2000/svg" xmlns:xlink="http://www.w3.org/1999/xlink" version="1.1" id="Layer_1" x="0px" y="0px" viewBox="0 0 512 512" style="enable-background:new 0 0 512 512;" xml:space="preserve" width="512px" height="512px">
<g>
	<g>
		<path d="M291.381,114.433l49.201-52.985c6.111-6.581,5.921-16.816-0.429-23.166L306.763,4.891C303.63,1.76,299.384,0,294.957,0    h-77.913c-4.428,0-8.674,1.76-11.805,4.891l-33.391,33.391c-6.35,6.35-6.539,16.585-0.429,23.166l49.201,52.985    C126.962,131.19,55.652,213.25,55.652,311.652C55.652,422.124,145.528,512,256,512s200.348-89.876,200.348-200.348    C456.348,213.25,385.038,131.19,291.381,114.433z M206.835,50.517l17.124-17.125h64.081l17.125,17.125L256,103.464L206.835,50.517    z M256,445.217c-73.648,0-133.565-59.917-133.565-133.565S182.352,178.087,256,178.087s133.565,59.917,133.565,133.565    S329.648,445.217,256,445.217z" fill="#1e5c9a"/>
	</g>
</g>
<g>
</g>
<g>
</g>
<g>
</g>
<g>
</g>
<g>
</g>
<g>
</g>
<g>
</g>
<g>
</g>
<g>
</g>
<g>
</g>
<g>
</g>
<g>
</g>
<g>
</g>
<g>
</g>
<g>
</g>
</svg>
