<svg xmlns="http://www.w3.org/2000/svg" xmlns:xlink="http://www.w3.org/1999/xlink" version="1.1" width="701.2857152101947" height="700.5714321233789" style="enable-background:new 0 0 612.043 612.043;" xml:space="preserve"><rect id="backgroundrect" width="100%" height="100%" x="0" y="0" fill="none" stroke="none" class=""/>
















<g class="currentLayer"><title>Layer 1</title><g id="svg_1" class="" fill="#b6b6b6" fill-opacity="1">
	<g id="cross" fill="#b6b6b6" fill-opacity="1">
		<g id="svg_2" fill="#b6b6b6" fill-opacity="1">
			<path d="M441.78871319580077,350.29671605682375 l195.577,-195.577 c25.27,-25.269 25.27,-66.213 0,-91.482 c-25.269,-25.269 -66.213,-25.269 -91.481,0 L350.3077131958008,258.8367160568237 L154.73071319580077,63.259716056823734 c-25.269,-25.269 -66.213,-25.269 -91.482,0 s-25.269,66.213 0,91.482 L258.82571319580074,350.31871605682375 L63.248713195800775,545.8957160568237 c-25.269,25.269 -25.269,66.213 0,91.481 c25.269,25.27 66.213,25.27 91.482,0 l195.577,-195.576 l195.577,195.576 c25.269,25.27 66.213,25.27 91.481,0 c25.27,-25.269 25.27,-66.213 0,-91.481 L441.78871319580077,350.29671605682375 z" fill="#b6b6b6" id="svg_3" fill-opacity="1"/>
		</g>
	</g>
</g><g id="svg_4">
</g><g id="svg_5">
</g><g id="svg_6">
</g><g id="svg_7">
</g><g id="svg_8">
</g><g id="svg_9">
</g><g id="svg_10">
</g><g id="svg_11">
</g><g id="svg_12">
</g><g id="svg_13">
</g><g id="svg_14">
</g><g id="svg_15">
</g><g id="svg_16">
</g><g id="svg_17">
</g><g id="svg_18">
</g></g></svg>