<svg xmlns="http://www.w3.org/2000/svg" xmlns:xlink="http://www.w3.org/1999/xlink" version="1.1" xml:space="preserve" width="359.684" height="359.684"><rect id="backgroundrect" width="100%" height="100%" x="0" y="0" fill="none" stroke="none"/>



















<g class="currentLayer"><title>Layer 1</title><path d="M271.042,350l-86.4-66.4c-2.8-2.4-6.8-2.4-9.6,0l-86.4,66.4c-5.2,4-12.8,0.4-12.8-6.4V40  c0-17.6,14.4-32,32-32h144c17.6,0,32,14.4,32,32v303.6C283.842,350.4,276.242,354,271.042,350z" id="svg_1" class="" fill-opacity="1" fill="#ed446e"/><path d="M83.842,359.6c-2.4,0-4.8-0.4-7.2-1.6c-5.6-2.8-8.8-8.4-8.8-14.4V40c0-22,18-40,40-40h144  c22,0,40,18,40,40v303.6c0,6-3.6,11.6-8.8,14.4c-5.6,2.8-12,2-16.8-1.6l-86.4-66.4l-86.4,66.4  C90.642,358.4,87.042,359.6,83.842,359.6z M189.842,277.2l86,66.4l0,0l0,0V40c0-13.2-10.8-24-24-24h-144c-13.2,0-24,10.8-24,24  v303.6l86-66.4C175.842,272.8,183.842,272.8,189.842,277.2z" id="svg_2" class="" fill-opacity="1" fill="#a3095b"/><path d="M235.842,311.6l40,32v-304c0-13.2-10.8-24-24-24h-16V311.6z" id="svg_3" class="" fill-opacity="1" fill="#e01d61"/><g id="svg_4" class="" fill-opacity="1" fill="#a3095b">
	<path d="M235.842,121.20634841918945 c-4.4,0 -8,-3.6 -8,-8 v-12 c0,-4.4 3.6,-8 8,-8 s8,3.6 8,8 v12 C243.842,117.60634841918946 240.242,121.20634841918945 235.842,121.20634841918945 z" id="svg_5" fill="#a3095b"/>
	<path d="M235.842,73.20634841918945 c-4.4,0 -8,-3.6 -8,-8 V-42.79365158081055 c0,-4.4 3.6,-8 8,-8 s8,3.6 8,8 v108 C243.842,69.60634841918946 240.242,73.20634841918945 235.842,73.20634841918945 z" id="svg_6" fill="#a3095b"/>
</g><g id="svg_7">
</g><g id="svg_8">
</g><g id="svg_9">
</g><g id="svg_10">
</g><g id="svg_11">
</g><g id="svg_12">
</g><g id="svg_13">
</g><g id="svg_14">
</g><g id="svg_15">
</g><g id="svg_16">
</g><g id="svg_17">
</g><g id="svg_18">
</g><g id="svg_19">
</g><g id="svg_20">
</g><g id="svg_21">
</g></g></svg>