<?xml version="1.0" encoding="iso-8859-1"?>
<!-- Generator: Adobe Illustrator 19.0.0, SVG Export Plug-In . SVG Version: 6.00 Build 0)  -->
<svg version="1.1" id="Layer_1" xmlns="http://www.w3.org/2000/svg" xmlns:xlink="http://www.w3.org/1999/xlink" x="0px" y="0px"
	 viewBox="0 0 512 512" style="enable-background:new 0 0 512 512;" xml:space="preserve">
<rect x="176" y="80" style="fill:#DDCCFF;" width="160" height="96"/>
<g>
	<path style="fill:#5A5A80;" d="M464,0H144c-26.512,0-47.936,21.44-48,47.936V128H48c-26.512,0-47.936,21.44-48,47.936v272
		c0.064,35.376,28.624,63.968,64,64.032V512h384c35.376,0,63.936-28.688,64-64.064v-400C511.936,21.44,490.512,0,464,0z M96,447.936
		c-0.016,17.744-14.256,31.984-32,32c-17.744-0.016-31.984-14.256-32-32v-272C32.016,167.248,39.312,160,48,160h48V447.936z
		 M480,447.936C479.984,465.68,465.744,480,448,480H119.104c5.488-16,8.88-20.336,8.896-32.064v-304v-96
		C128.016,39.248,135.312,32,144,32h320c8.688,0,15.984,7.248,16,15.936V447.936z"/>
	<path style="fill:#5A5A80;" d="M176,192h160c4.208,0,8.336-1.728,11.312-4.72c2.976-2.976,4.688-7.12,4.688-11.344v-96
		c0-4.208-1.712-8.304-4.688-11.28C344.336,65.68,340.208,64,336,64H176c-4.208,0-8.336,1.68-11.312,4.656S160,75.728,160,79.936v96
		c0,4.208,1.712,8.368,4.688,11.344S171.792,192,176,192z M192,96h128v64H192V96z"/>
	<path style="fill:#5A5A80;" d="M432,96h-32c-8.832,0-16,7.168-16,16s7.168,16,16,16h32c8.832,0,16-7.168,16-16S440.832,96,432,96z"
		/>
	<path style="fill:#5A5A80;" d="M432,160h-32c-8.832,0-16,7.168-16,16s7.168,16,16,16h32c8.832,0,16-7.168,16-16
		S440.832,160,432,160z"/>
	<path style="fill:#5A5A80;" d="M432,224H176c-8.832,0-16,7.168-16,16s7.168,16,16,16h256c8.832,0,16-7.168,16-16
		S440.832,224,432,224z"/>
	<path style="fill:#5A5A80;" d="M432,288H176c-8.832,0-16,7.168-16,16s7.168,16,16,16h256c8.832,0,16-7.168,16-16
		S440.832,288,432,288z"/>
	<path style="fill:#5A5A80;" d="M432,352H176c-8.832,0-16,7.168-16,16s7.168,16,16,16h256c8.832,0,16-7.168,16-16
		S440.832,352,432,352z"/>
	<path style="fill:#5A5A80;" d="M432,416H176c-8.832,0-16,7.168-16,16s7.168,16,16,16h256c8.832,0,16-7.168,16-16
		S440.832,416,432,416z"/>
</g>
<g>
</g>
<g>
</g>
<g>
</g>
<g>
</g>
<g>
</g>
<g>
</g>
<g>
</g>
<g>
</g>
<g>
</g>
<g>
</g>
<g>
</g>
<g>
</g>
<g>
</g>
<g>
</g>
<g>
</g>
</svg>
