<svg xmlns="http://www.w3.org/2000/svg" xmlns:xlink="http://www.w3.org/1999/xlink" version="1.1" style="enable-background:new 0 0 375.573 375.573;" xml:space="preserve" width="375.573" height="375.573"><rect id="backgroundrect" width="100%" height="100%" x="0" y="0" fill="none" stroke="none"/>
















<g class="currentLayer"><title>Layer 1</title>
	<path d="M187.586,16.78600022125244 l62.8,102.8 l117.2,27.6 l-78.4,91.6 l9.6,120 l-111.2,-46.4 l-110.8,46.4 l9.6,-120 l-78.4,-91.6 l117.2,-27.6 L187.586,16.78600022125244 z" id="svg_2" class="" fill-opacity="1" fill="#ffd323"/>
	<path d="M223.586,193.58600022125245 l-36,-160.8 l62.8,86.8 l117.2,27.6 l-78.4,91.6 l9.6,120 l-111.2,-46.4 L223.586,193.58600022125245 z" id="svg_3" class="" fill-opacity="1" fill="#f9ca1d"/>
	<path d="M298.786,366.78600022125244 c-1.2,0 -2,-0.4 -3.2,-0.8 l-108,-45.2 l-107.6,45.2 c-2.4,1.2 -5.6,0.8 -7.6,-0.8 c-2.4,-1.6 -3.6,-4.4 -3.2,-7.2 l9.2,-116.8 l-76.4,-88.8 c-2,-2 -2.4,-5.2 -1.6,-7.6 c0.8,-2.8 3.2,-4.8 5.6,-5.2 l114,-27.2 l60.8,-99.6 c1.6,-2.4 4,-4 6.8,-4 l0,0 c2.8,0 5.2,1.6 6.8,4 l61.2,100 l114,26.8 c2.8,0.8 4.8,2.8 5.6,5.2 c0.8,2.8 0.4,5.6 -1.6,7.6 l-76,89.2 l9.2,116.8 c0.4,2.8 -1.2,5.6 -3.2,7.2 C301.986,366.38600022125246 300.386,366.78600022125244 298.786,366.78600022125244 zM187.586,304.38600022125246 c1.2,0 2,0.4 3.2,0.8 l99.2,41.2 l-8.4,-106.8 c0,-2 0.4,-4.4 2,-6 l70,-81.6 l-104.4,-24.4 c-2,-0.4 -4,-1.6 -4.8,-3.6 l-56,-91.6 l-56.4,91.2 c-1.2,2 -2.8,3.2 -5.2,3.6 l-104,24.8 l70,81.6 c1.2,1.6 2,3.6 2,6 l-8.4,106.8 l98.8,-41.2 C185.586,304.78600022125244 186.386,304.38600022125246 187.586,304.38600022125246 zM125.186,119.58600022125245 L125.186,119.58600022125245 L125.186,119.58600022125245 z" id="svg_4" class="" fill-opacity="1" fill="#fcba2a"/>
	<g id="svg_5" class="" fill-opacity="1" fill="#fcba2a">
		<path d="M88.786,195.98600022125245 c-2.4,0 -4.4,-0.8 -6,-2.8 l-8,-9.6 c-2.8,-3.2 -2.4,-8.4 1.2,-11.2 s8.4,-2.4 11.2,1.2 l8,9.6 c2.8,3.2 2.4,8.4 -1.2,11.2 C92.386,195.18600022125244 90.786,195.98600022125245 88.786,195.98600022125245 z" id="svg_6" fill="#fcba2a"/>
		<path d="M118.386,284.78600022125244 c-0.4,0 -0.4,0 -0.8,0 c-4.4,-0.4 -7.6,-4.4 -7.2,-8.8 l2,-25.2 c1.2,-13.6 -3.6,-27.2 -12.4,-38.4 l-2.4,-2.8 c-2.8,-3.2 -2.4,-8.4 0.8,-11.2 c3.2,-2.8 8.4,-2.4 11.2,0.8 l2.4,2.8 c12,14 17.6,32 16.4,50 l-2,25.2 C125.986,281.58600022125245 122.386,284.78600022125244 118.386,284.78600022125244 z" id="svg_7" fill="#fcba2a"/>
	</g>
<g id="svg_8">
</g><g id="svg_9">
</g><g id="svg_10">
</g><g id="svg_11">
</g><g id="svg_12">
</g><g id="svg_13">
</g><g id="svg_14">
</g><g id="svg_15">
</g><g id="svg_16">
</g><g id="svg_17">
</g><g id="svg_18">
</g><g id="svg_19">
</g><g id="svg_20">
</g><g id="svg_21">
</g><g id="svg_22">
</g></g></svg>