<svg xmlns="http://www.w3.org/2000/svg" xmlns:xlink="http://www.w3.org/1999/xlink" version="1.1" xml:space="preserve" width="464" height="512"><rect id="backgroundrect" width="100%" height="100%" x="0" y="0" fill="none" stroke="none" class=""/>



















<g class="currentLayer"><title>Layer 1</title><path style="fill:#FFFFFF;" d="M419.783,54.045 c0,-22.763 -18.453,-41.216 -41.216,-41.216 H97.435 c-22.763,0 -41.216,18.453 -41.216,41.216 v403.912 c0,22.763 18.453,41.216 41.216,41.216 h197.978 l124.37,-124.37 V54.045 z" id="svg_1" class=""/><path fill="#cee5e5" fill-opacity="1" stroke="none" stroke-opacity="1" stroke-width="2" stroke-dasharray="none" stroke-linejoin="round" stroke-linecap="butt" stroke-dashoffset="" fill-rule="nonzero" opacity="1" marker-start="" marker-mid="" marker-end="" id="svg_11" d="M 171 177.1999969482422 C 171 177.1999969482422 271 82.19999694824219 271 82.19999694824219 C 271 82.19999694824219 302 137.1999969482422 302 137.1999969482422 C 302 137.1999969482422 320 132.1999969482422 320 132.1999969482422 C 320 132.1999969482422 423 331.1999969482422 423 331.1999969482422 C 423 331.1999969482422 415 377.1999969482422 415 377.1999969482422 C 415 377.1999969482422 327 378.1999969482422 327 378.1999969482422 C 327 378.1999969482422 295 387.1999969482422 295 387.1999969482422 C 295 387.1999969482422 171 177.1999969482422 171 177.1999969482422 z" style="color: rgb(18, 66, 95);" class=""/><path style="fill:#80D0E1;" d="M419.783,374.801 h-83.154 c-22.763,0 -41.216,18.453 -41.216,41.216 v83.154 L419.783,374.801 z" id="svg_2" class=""/>
	<path d="M432.611,54.045 c0,-29.8 -24.245,-54.045 -54.045,-54.045 H97.435 C67.635,0 43.39,24.245 43.39,54.045 v403.912 c0,29.8 24.245,54.045 54.045,54.045 h197.978 c3.3,0 6.606,-1.295 9.072,-3.758 l124.37,-124.368 c2.282,-2.282 3.7560000000000002,-5.559 3.7560000000000002,-9.071 L432.611,54.045 L432.611,54.045 zM69.048,457.955 V54.045 c0,-15.653 12.735,-28.387 28.387,-28.387 h281.131 c15.653,0 28.387,12.735 28.387,28.387 v307.93 h-70.325 c-29.8,0 -54.045,24.243 -54.045,54.043 v70.325 H97.435 C81.782,486.343 69.048,473.608 69.048,457.955 zM308.241,468.201 v-52.184 c0,-15.653 12.733,-28.386 28.387,-28.386 h52.184 C380.257,396.186 316.554,459.886 308.241,468.201 z" id="svg_5" fill="#12425f" class=""/>
	
	<path d="M119.54499999999999,373.17 h130.43 c7.087,0 12.829,-5.744 12.829,-12.829 c0,-7.085 -5.742,-12.829 -12.829,-12.829 h-130.43 c-7.085,0 -12.829,5.744 -12.829,12.829 C106.716,367.426 112.46000000000001,373.17 119.54499999999999,373.17 z" id="svg_7" fill="#12425f" class=""/>
	<path d="M249.97500000000002,410.8 h-130.43 c-7.085,0 -12.829,5.744 -12.829,12.829 c0,7.085 5.744,12.829 12.829,12.829 h130.43 c7.087,0 12.829,-5.744 12.829,-12.829 C262.804,416.543 257.06,410.8 249.97500000000002,410.8 z" id="svg_8" fill="#12425f" class=""/>
<path fill="#4a90d6" fill-opacity="1" stroke="#222222" stroke-opacity="1" stroke-width="2" stroke-dasharray="none" stroke-linejoin="round" stroke-linecap="butt" stroke-dashoffset="" fill-rule="nonzero" opacity="1" marker-start="" marker-mid="" marker-end="" id="svg_9" d="M174,175.1999969482422 " style="color: rgb(0, 0, 0);"/><path d="M272.9515669159715,222.12188254795274 v-33.1306561486721 c0,-4.297993044376374 3.483179851293564,-7.781172895669938 7.781172895669938,-7.781172895669938 h33.1306561486721 c4.297993044376374,0 7.781172895669938,-3.483179851293564 7.781172895669938,-7.781172895669938 v-38.12387829160691 c0,-4.297993044376374 -3.483179851293564,-7.781172895669938 -7.781172895669938,-7.781172895669938 h-33.1306561486721 c-4.297993044376374,0 -7.781172895669938,-3.483179851293564 -7.781172895669938,-7.781172895669938 V86.61317276940547 c0,-4.297993044376374 -3.483179851293564,-7.781172895669938 -7.781172895669938,-7.781172895669938 h-38.12622307777405 c-4.297993044376374,0 -7.781172895669938,3.483179851293564 -7.781172895669938,7.781172895669938 v33.1306561486721 c0,4.297993044376374 -3.483179851293564,7.781172895669938 -7.781172895669938,7.781172895669938 h-33.1306561486721 c-4.297993044376374,0 -7.781172895669938,3.483179851293564 -7.781172895669938,7.781172895669938 v38.12622307777405 c0,4.297993044376374 3.483179851293564,7.781172895669938 7.781172895669938,7.781172895669938 h33.1306561486721 c4.297993044376374,0 7.781172895669938,3.483179851293564 7.781172895669938,7.781172895669938 v33.1306561486721 c0,4.297993044376374 3.483179851293564,7.781172895669938 7.781172895669938,7.781172895669938 h38.12622307777405 C269.468387064678,229.9030554436227 272.9515669159715,226.4198755923291 272.9515669159715,222.12188254795274 z" id="svg_3" class="" fill-opacity="1" fill="#ed446e"/></g></svg>