<svg xmlns="http://www.w3.org/2000/svg" xmlns:xlink="http://www.w3.org/1999/xlink" version="1.1" width="32" height="32" style="enable-background:new 0 0 32 32;" xml:space="preserve"><rect id="backgroundrect" width="100%" height="100%" x="0" y="0" fill="none" stroke="none"/>



















<g class="currentLayer"><title>Layer 1</title><g id="Base_7_">
	<g id="svg_1">
		<path style="fill:#CCCCCC;" d="M0,10v20c0,1.105,0.895,2,2,2h28c1.104,0,2-0.895,2-2V10H0z" id="svg_2"/>
	</g>
</g><g id="Container_3_">
	<g id="svg_3">
		<path style="fill:#FFFFFF;" d="M2,10.001v19c0,0.552,0.448,1,1,1h26c0.552,0,1-0.448,1-1v-19H2z" id="svg_4"/>
	</g>
</g><g id="_x34_" class="" fill-opacity="1" fill="#12425f">
	<g id="svg_5" fill="#12425f">
		<path style="fill-rule: evenodd; clip-rule: evenodd;" d="M19,21v-0.999c0-0.553-0.448-1-1-1s-1,0.447-1,1V21h-2.279    l3.145-5.484c0.276-0.481,0.112-1.098-0.366-1.375c-0.479-0.278-1.09-0.113-1.366,0.368l-4,6.977    c-0.016,0.028-0.016,0.059-0.029,0.087c-0.021,0.044-0.031,0.091-0.046,0.138c-0.022,0.077-0.042,0.15-0.046,0.228    C12.011,21.96,12,21.979,12,22.001c0,0.045,0.02,0.083,0.025,0.126c0.009,0.062,0.017,0.121,0.037,0.18    c0.024,0.075,0.059,0.14,0.1,0.206c0.025,0.042,0.049,0.081,0.08,0.119c0.056,0.067,0.122,0.122,0.194,0.172    c0.024,0.017,0.039,0.042,0.064,0.057c0.013,0.007,0.028,0.007,0.041,0.014c0.076,0.041,0.158,0.063,0.244,0.083    c0.046,0.01,0.09,0.024,0.137,0.028c0.027,0.002,0.05,0.016,0.078,0.016h4V25c0,0.553,0.448,1.001,1,1.001s1-0.448,1-1.001v-1.999    c0.552,0,1-0.448,1-1C20,21.448,19.552,21,19,21z" id="svg_6" fill="#12425f"/>
	</g>
</g><g id="Header" class="" fill-opacity="1" fill="#d64033">
	<g id="svg_7" fill="#d64033">
		<path style="fill-rule: evenodd; clip-rule: evenodd;" d="M30,0H2C0.895,0,0,0.896,0,2.001V10h32V2.001    C32,0.896,31.104,0,30,0z M12,6.001c-0.553,0-1-0.448-1-1.001c0-0.552,0.447-0.999,1-0.999c0.552,0,1,0.447,1,0.999    C13,5.553,12.552,6.001,12,6.001z M20,6.001c-0.552,0-1-0.448-1-1.001c0-0.552,0.448-0.999,1-0.999S21,4.448,21,5    C21,5.553,20.552,6.001,20,6.001z" id="svg_8" fill="#d64033"/>
	</g>
</g><g id="svg_9">
</g><g id="svg_10">
</g><g id="svg_11">
</g><g id="svg_12">
</g><g id="svg_13">
</g><g id="svg_14">
</g><g id="svg_15">
</g><g id="svg_16">
</g><g id="svg_17">
</g><g id="svg_18">
</g><g id="svg_19">
</g><g id="svg_20">
</g><g id="svg_21">
</g><g id="svg_22">
</g><g id="svg_23">
</g></g></svg>