<svg xmlns="http://www.w3.org/2000/svg" version="1" enable-background="new 0 0 48 48" width="44.513513513513516" height="42.216216216216225"><rect id="backgroundrect" width="100%" height="100%" x="0" y="0" fill="none" stroke="none" class=""/>
    
    
<g class="currentLayer"><title>Layer 1</title><path fill="#FFA000" d="M35.297297328710556,8.756756871938705 H19.297297328710556 l-4,-4 H5.297297328710556 c-2.2,0 -4,1.8 -4,4 v24 c0,2.2 1.8,4 4,4 h31 c1.7000000000000002,0 3,-1.3 3,-3 V12.756756871938705 C39.297297328710556,10.556756871938708 37.49729732871056,8.756756871938705 35.297297328710556,8.756756871938705 z" id="svg_1" class=""/><path fill="#FFCA28" d="M39.49729732871056,14.756756871938705 H12.597297328710557 c-1.9,0 -3.6,1.4 -3.9,3.3 L5.297297328710556,36.756756871938705 h31.7 c1.9,0 3.6,-1.4 3.9,-3.3 l2.5,-14 C43.89729732871056,17.056756871938706 41.99729732871056,14.756756871938705 39.49729732871056,14.756756871938705 z" id="svg_2" class=""/></g></svg>