<?xml version="1.0" encoding="utf-8"?>
<!-- Generator: Adobe Illustrator 16.0.0, SVG Export Plug-In . SVG Version: 6.00 Build 0)  -->
<!DOCTYPE svg PUBLIC "-//W3C//DTD SVG 1.1//EN" "http://www.w3.org/Graphics/SVG/1.1/DTD/svg11.dtd">
<svg version="1.1" id="Layer_1" xmlns="http://www.w3.org/2000/svg" xmlns:xlink="http://www.w3.org/1999/xlink" x="0px" y="0px"
	 width="100px" height="100px" viewBox="0 0 100 100" enable-background="new 0 0 100 100" xml:space="preserve">
<g id="omedf">
	<path fill="#082838" d="M89.033,54.102L58.928,36.972c-5.541-3.127-12.314-3.127-17.854,0L10.967,54.102
		c-4.573,2.615-7.409,7.457-7.469,12.719c0.06,5.262,2.896,10.103,7.469,12.718l30.105,17.13c2.719,1.559,5.795,2.381,8.929,2.391
		c3.132-0.01,6.208-0.832,8.927-2.391L89.033,79.54c4.574-2.616,7.41-7.458,7.469-12.72C96.443,61.559,93.607,56.717,89.033,54.102z
		"/>
	<path fill="#2A73B5" d="M89.033,37.214L58.928,20.085c-5.541-3.127-12.314-3.127-17.854,0L10.967,37.214
		c-4.573,2.616-7.409,7.458-7.469,12.719c0.06,5.26,2.896,10.102,7.469,12.717l30.105,17.129c2.719,1.558,5.795,2.382,8.929,2.389
		c3.132-0.007,6.208-0.831,8.927-2.389l30.105-17.127c4.574-2.616,7.41-7.459,7.469-12.718
		C96.443,44.671,93.607,39.831,89.033,37.214z"/>
	<path opacity="0.8" fill="#FFFFFF" enable-background="new    " d="M89.033,37.214L58.928,20.085
		c-5.541-3.127-12.314-3.127-17.854,0L10.967,37.214c-1.912,1.094-3.515,2.581-4.744,4.321c1.229,1.74,2.832,3.227,4.744,4.32
		l30.105,17.129c2.719,1.557,5.796,2.38,8.929,2.388c3.132-0.008,6.208-0.831,8.927-2.388l30.105-17.128
		c1.913-1.094,3.517-2.581,4.745-4.321C92.55,39.795,90.946,38.308,89.033,37.214z"/>
	<path opacity="0.8" fill="#E6EBED" enable-background="new    " d="M10.967,37.214l30.107-17.129c5.54-3.127,12.313-3.127,17.854,0
		l30.105,17.129c1.913,1.094,3.517,2.581,4.745,4.321c1.71-2.421,2.689-5.336,2.724-8.396c-0.059-5.262-2.895-10.104-7.469-12.72
		L58.928,3.291c-5.541-3.127-12.314-3.127-17.854,0L10.967,20.419c-4.573,2.616-7.409,7.458-7.469,12.718
		c0.035,3.061,1.015,5.976,2.725,8.397C7.452,39.794,9.055,38.308,10.967,37.214z"/>
</g>
</svg>
