<svg xmlns="http://www.w3.org/2000/svg" xmlns:xlink="http://www.w3.org/1999/xlink" version="1.1" style="enable-background:new 0 0 578.106 578.106;" xml:space="preserve" width="578.106" height="578.106"><rect id="backgroundrect" width="100%" height="100%" x="0" y="0" fill="none" stroke="none"/>
















<g class="currentLayer" style=""><title>Layer 1</title><g id="svg_1" class="selected" fill-opacity="1" fill="#0391fd">
	<g id="svg_2" fill="#0391fd">
		<path d="M577.83,456.8632941036224 c1.225,9.385 -1.6350000000000002,17.545 -8.568,24.48 l-81.396,80.781 c-3.672,4.08 -8.465,7.551 -14.381,10.404 c-5.916,2.857 -11.729,4.6930000000000005 -17.439,5.508 c-0.40800000000000003,0 -1.6350000000000002,0.10500000000000001 -3.676,0.30900000000000005 c-2.037,0.203 -4.689,0.30700000000000005 -7.953,0.30700000000000005 c-7.7540000000000004,0 -20.301,-1.326 -37.641,-3.979 s-38.555,-9.182 -63.645,-19.584 c-25.096,-10.404 -53.553,-26.012 -85.376,-46.818 c-31.823,-20.805 -65.688,-49.367 -101.592,-85.68 c-28.56,-28.152 -52.224,-55.08 -70.992,-80.783 c-18.768,-25.705 -33.864,-49.471 -45.288,-71.299 c-11.425,-21.828 -19.993,-41.616 -25.705,-59.364 S4.59,178.09729410362243 2.55,165.24529410362243 s-2.856,-22.95 -2.448,-30.294 c0.40800000000000003,-7.344 0.6120000000000001,-11.424 0.6120000000000001,-12.24 c0.8160000000000001,-5.712 2.652,-11.526 5.508,-17.442 s6.324,-10.71 10.404,-14.382 L98.022,9.491294103622437 c5.712,-5.712 12.24,-8.568 19.584,-8.568 c5.304,0 9.996,1.53 14.076,4.59 s7.548,6.834 10.404,11.322 l65.484,124.236 c3.672,6.5280000000000005 4.692,13.668 3.06,21.42 c-1.6320000000000001,7.752 -5.1,14.28 -10.404,19.584 l-29.988,29.988 c-0.8160000000000001,0.8160000000000001 -1.53,2.142 -2.142,3.9779999999999998 s-0.918,3.366 -0.918,4.59 c1.6320000000000001,8.568 5.304,18.36 11.016,29.376 c4.896,9.792 12.444,21.726 22.644,35.802 s24.684,30.293 43.452,48.653 c18.36,18.77 34.68,33.354 48.96,43.76 c14.277,10.4 26.215,18.053 35.803,22.949 c9.588000000000001,4.896 16.932,7.854 22.031,8.871 l7.648,1.5310000000000001 c0.8160000000000001,0 2.145,-0.30700000000000005 3.979,-0.918 c1.836,-0.6130000000000001 3.162,-1.326 3.979,-2.143 l34.883,-35.496 c7.348,-6.527 15.912,-9.791 25.705,-9.791 c6.938,0 12.443,1.223 16.523,3.672 h0.6110000000000001 l118.115,69.768 C571.098,441.97329410362244 576.197,448.70329410362245 577.83,456.8632941036224 z" fill="#0391fd" id="svg_3"/>
	</g>
</g><g id="svg_4">
</g><g id="svg_5">
</g><g id="svg_6">
</g><g id="svg_7">
</g><g id="svg_8">
</g><g id="svg_9">
</g><g id="svg_10">
</g><g id="svg_11">
</g><g id="svg_12">
</g><g id="svg_13">
</g><g id="svg_14">
</g><g id="svg_15">
</g><g id="svg_16">
</g><g id="svg_17">
</g><g id="svg_18">
</g></g></svg>