<svg xmlns="http://www.w3.org/2000/svg" xmlns:xlink="http://www.w3.org/1999/xlink" version="1.1" style="enable-background:new 0 0 512 512;" xml:space="preserve" width="512" height="512"><rect id="backgroundrect" width="100%" height="100%" x="0" y="0" fill="none" stroke="none"/>


















<g class="currentLayer"><title>Layer 1</title><g class="" transform="rotate(-54.29645538330078 272.00000000000006,241) "><path style="fill:#70B6E4;" d="M50.909,334.091 h315.357 c18.653,0 36.177,-7.261 49.373,-20.445 l84.271,-84.282 c3.107,-3.107 4.817,-7.238 4.817,-11.636 c0,-4.329 -1.7570000000000001,-8.576 -4.817,-11.636 l-84.282,-84.282 c-13.184,-13.184 -30.72,-20.445 -49.361,-20.445 H50.909 c-6.412,0 -11.636,5.225 -11.636,11.636 v209.455 C39.272999999999996,328.866 44.497,334.091 50.909,334.091 zM411.636,182.818 c19.247,0 34.909,15.663 34.909,34.909 s-15.663,34.909 -34.909,34.909 c-19.247,0 -34.909,-15.663 -34.909,-34.909 S392.39,182.818 411.636,182.818 z" id="svg_1" class=""/><path style="fill:#4C9BD5;" d="M499.91,206.091 l-39.866,39.866 c-5.725,-4.236 -11.916,-7.796 -18.56,-10.391 c-6.109,10.182 -17.14,17.071 -29.847,17.071 c-1.3960000000000001,0 -2.723,-0.256 -4.073,-0.4070000000000001 c1.431,0.6280000000000002 3.002,1.001 4.666,1.001 c0.11600000000000003,0 0.22100000000000006,0 0.3370000000000002,0 c14.732,0.09300000000000005 21.469,18.746 11.055,29.161 l-7.983,7.983 c-13.103,13.091 -30.86,20.445 -49.373,20.445 H50.909 c-6.423,0 -11.636,-5.213 -11.636,-11.636 v23.273 c0,6.423 5.213,11.636 11.636,11.636 h315.357 c18.513,0 36.259,-7.354 49.35,-20.445 l40.239,-40.239 l16.442,-16.442 l27.613,-27.601 c3.119,-3.107 4.817,-7.238 4.817,-11.636 S503.01700000000005,209.209 499.91,206.091 z" id="svg_2" class=""/><g id="svg_3" class="">
	<path style="fill:#004463;" d="M178.909,159.545 H85.818 c-6.423,0 -11.636,-5.213 -11.636,-11.636 c0,-6.423 5.213,-11.636 11.636,-11.636 h93.091 c6.423,0 11.636,5.213 11.636,11.636 C190.545,154.332 185.332,159.545 178.909,159.545 z" id="svg_4"/>
	<path style="fill:#004463;" d="M178.909,194.455 h-58.182 c-6.423,0 -11.636,-5.213 -11.636,-11.636 c0,-6.423 5.213,-11.636 11.636,-11.636 h58.182 c6.423,0 11.636,5.213 11.636,11.636 C190.545,189.241 185.332,194.455 178.909,194.455 z" id="svg_5"/>
	<path style="fill:#004463;" d="M178.909,229.364 h-58.182 c-6.423,0 -11.636,-5.213 -11.636,-11.636 s5.213,-11.636 11.636,-11.636 h58.182 c6.423,0 11.636,5.213 11.636,11.636 S185.332,229.364 178.909,229.364 z" id="svg_6"/>
	<path style="fill:#004463;" d="M178.909,264.273 h-58.182 c-6.423,0 -11.636,-5.213 -11.636,-11.636 c0,-6.423 5.213,-11.636 11.636,-11.636 h58.182 c6.423,0 11.636,5.213 11.636,11.636 C190.545,259.06 185.332,264.273 178.909,264.273 z" id="svg_7"/>
	<path style="fill:#004463;" d="M178.909,299.182 H85.818 c-6.423,0 -11.636,-5.213 -11.636,-11.636 s5.213,-11.636 11.636,-11.636 h93.091 c6.423,0 11.636,5.213 11.636,11.636 S185.332,299.182 178.909,299.182 z" id="svg_8"/>
	<circle style="fill:#004463;" cx="85.81800079345703" cy="182.8179931640625" r="11.63599967956543" id="svg_9"/>
	<circle style="fill:#004463;" cx="85.81800079345703" cy="217.7270050048828" r="11.63599967956543" id="svg_10"/>
	<circle style="fill:#004463;" cx="85.81800079345703" cy="252.635986328125" r="11.63599967956543" id="svg_11"/>
	<path style="fill:#004463;" d="M528,217.727 c0,-10.612 -4.131,-20.596 -11.636,-28.09 l-84.282,-84.282 c-17.571,-17.583 -40.96,-27.264 -65.815,-27.264 H50.909 C31.662999999999997,78.091 16,93.753 16,113 v209.455 c0,19.247 15.663,34.909 34.909,34.909 h280.367 c16.535,28.416 47.174,46.545 80.361,46.545 c51.328,0 93.091,-41.763 93.091,-93.091 c0,-15.453 -3.84,-29.999 -10.531,-42.833 l22.167,-22.167 C523.869,238.312 528,228.34 528,217.727 zM481.455,310.818 c0,38.505 -31.313,69.818 -69.818,69.818 c-20.038,0 -38.912,-8.751 -51.991,-23.273 h6.609 c24.867,0 48.244,-9.681000000000001 65.827,-27.264 l44.556,-44.556 C479.709,293.387 481.455,301.893 481.455,310.818 zM499.91,229.364 l-19.235,19.223 c-9.519,-10.554 -21.376,-18.932 -34.804,-24.262 c0.4190000000000001,-2.129 0.6750000000000004,-4.34 0.6750000000000004,-6.598 c0,-19.247 -15.663,-34.909 -34.909,-34.909 c-19.247,0 -34.909,15.663 -34.909,34.909 s15.663,34.909 34.909,34.909 c8.378,0 15.977,-3.095 22.004,-8.029 c11.974,3.991 22.481,11.124 30.592,20.433 l-48.605,48.593 c-13.184,13.196 -30.72,20.457 -49.361,20.457 H50.909 c-6.412,0 -11.636,-5.225 -11.636,-11.636 V113 c0,-6.412 5.225,-11.636 11.636,-11.636 h315.357 c18.653,0 36.177,7.261 49.373,20.445 l84.271,84.282 c3.06,3.06 4.817,7.308 4.817,11.636 C504.727,222.126 503.01700000000005,226.257 499.91,229.364 zM411.636,217.727 c-4.259,0 -7.82,2.3970000000000002 -9.844,5.818 c-1.036,-1.745 -1.792,-3.654 -1.792,-5.818 c0,-6.412 5.225,-11.636 11.636,-11.636 s11.636,5.225 11.636,11.636 c0,0.279 -0.14,0.512 -0.16300000000000006,0.78 C419.34,218.041 415.535,217.727 411.636,217.727 z" id="svg_12"/>
</g><g id="svg_13" class="">
</g><g id="svg_14" class="">
</g><g id="svg_15" class="">
</g><g id="svg_16" class="">
</g><g id="svg_17" class="">
</g><g id="svg_18" class="">
</g><g id="svg_19" class="">
</g><g id="svg_20" class="">
</g><g id="svg_21" class="">
</g><g id="svg_22" class="">
</g><g id="svg_23" class="">
</g><g id="svg_24" class="">
</g><g id="svg_25" class="">
</g><g id="svg_26" class="">
</g><g id="svg_27" class="">
</g></g></g></svg>