<svg xmlns="http://www.w3.org/2000/svg" xmlns:xlink="http://www.w3.org/1999/xlink" version="1.1" width="511.6300048828125" height="511.6310119628906" xml:space="preserve"><rect id="backgroundrect" width="100%" height="100%" x="0" y="0" fill="none" stroke="none"/>
















<g class="currentLayer"><title>Layer 1</title><g id="svg_1" class="" fill-opacity="1" fill="#2476c7">
	<path d="M17.280384128377523,279.5738475351713 c30.48048254023691,75.38280678556748 112.77808189201109,113.0751929281594 246.90268115980695,113.0751929281594 h63.205418108873616 V464.47724119274346 c0,4.86657705006297 1.7878536012220283,9.075694478459516 5.360595872320775,12.62833503499781 c3.57471889199562,3.5546060561546375 7.803699300856349,5.332400459136042 12.696824331066551,5.332400459136042 c4.894113340658642,0 9.127046991313117,-1.7777944029814043 12.699789262411862,-5.332400459136042 L502.6159259048886,333.4491747689157 C506.18866817598735,329.8916204633365 507.9765217772094,325.68446853455623 507.9765217772094,320.820839733918 c0,-4.8626460508302864 -1.7878536012220283,-9.06979797961049 -5.360595872320775,-12.625386785573298 L358.14470455240877,164.53512049028615 c-3.5766955128924938,-3.5506750569219534 -7.809629163546969,-5.334365958752383 -12.699789262411862,-5.334365958752383 c-4.889171788416459,0 -9.121117128622497,1.7827081520222599 -12.696824331066551,5.334365958752383 c-3.573730581547183,3.5516578067301237 -5.360595872320775,7.761757984934843 -5.360595872320775,12.626369535381471 v71.8331144784537 h-63.205418108873616 c-18.431001552896408,0 -34.93578604178964,-0.5582018910411487 -49.51336515623128,-1.6785366723561301 c-14.576590803993197,-1.1232830307394945 -29.06917521986927,-3.1339891382574336 -43.454033796865744,-6.037032071594673 c-14.393753371032403,-2.899111934104557 -26.90576364824129,-6.870403908923712 -37.53504252117823,-11.925668922155522 c-10.627302252040062,-5.05526501323181 -20.550927464793176,-11.553206744858699 -29.769887327810906,-19.499721693729693 c-9.21994817346617,-7.954376947336365 -16.744943927863364,-17.394671604627337 -22.579928815433764,-28.341521717844504 c-5.827078403982907,-10.943901863792656 -10.390107744415246,-23.891630586446052 -13.684146469054838,-38.8569446652746 c-3.287120551500534,-14.966296828636708 -4.938587310838295,-31.896127773999144 -4.938587310838295,-50.78359633723828 c0,-10.285459492318061 0.4734007048011895,-21.79345974600089 1.4113073203676374,-34.51220776335044 c0,-1.1173865318904679 0.2332412658310663,-3.3167806025772464 0.706641970632256,-6.59228571321131 c0.4674708421105694,-3.275505110634063 0.7036770392869457,-5.751051877416903 0.7036770392869457,-7.431554049389374 c0,-2.801819703095623 -0.7985548423368709,-5.141746996350861 -2.394676216562175,-7.0129026311085125 c-1.6030395473643608,-1.8691901351413112 -3.814878330965743,-2.801819703095623 -6.635516350804144,-2.801819703095623 c-3.010393625938252,0 -5.6412760396768045,1.5871409401962238 -7.900553724803147,4.769284819054037 c-1.312476275523966,1.6814849217806431 -2.5310630584464424,3.7403457698989633 -3.6666317637002344,6.174617044738619 c-1.1296388425631723,2.4283747759906307 -2.401594389701233,5.2331427285107655 -3.8089484682751227,8.414303857560409 c-1.4142722517129471,3.1811611290496433 -2.401594389701233,5.417899692446923 -2.962954724413289,6.729870686355254 c-23.887463538715547,53.30238409558065 -35.83416023941863,95.48200586228151 -35.83416023941863,126.53493430086992 C2.3272470435300487,223.36350675721263 7.309320014099386,254.51176192719362 17.280384128377523,279.5738475351713 z" fill="#2476c7" id="svg_2"/>
</g><g id="svg_3">
</g><g id="svg_4">
</g><g id="svg_5">
</g><g id="svg_6">
</g><g id="svg_7">
</g><g id="svg_8">
</g><g id="svg_9">
</g><g id="svg_10">
</g><g id="svg_11">
</g><g id="svg_12">
</g><g id="svg_13">
</g><g id="svg_14">
</g><g id="svg_15">
</g><g id="svg_16">
</g><g id="svg_17">
</g></g></svg>