<svg xmlns="http://www.w3.org/2000/svg" xmlns:xlink="http://www.w3.org/1999/xlink" version="1.1" style="enable-background:new 0 0 60.964 60.964;" xml:space="preserve" width="60.9640007019043" height="60.9640007019043"><rect id="backgroundrect" width="100%" height="100%" x="0" y="0" fill="none" stroke="none"/>
















<g class="currentLayer"><title>Layer 1</title>
	
		<path d="M28.30566665673256,4.168 C17.36266665673256,6.194 9.71666665673256,16.3 10.375666656732559,27.413 c0.012000000000000002,0.20500000000000002 0.037000000000000005,0.3980000000000001 0.06400000000000002,0.5930000000000001 c-0.401,1.9929999999999999 0.35600000000000004,4.349 2.734,5.3100000000000005 c3.7960000000000003,1.537 8.127,3.883 9.561,7.989 c1.534,4.397 -1.79,9.084 -4.471,12.228 c-3.54,4.15 2.451,10.201 6.02,6.021 c4.831,-5.667 8.262,-12.039 6.884,-19.653 c-0.03900000000000001,-0.20900000000000002 -0.09900000000000003,-0.40800000000000003 -0.14600000000000002,-0.6120000000000001 c0.32800000000000007,-0.466 0.5670000000000001,-1.021 0.6400000000000001,-1.6920000000000002 c0.8830000000000001,-8.227 3.199,-16.207 4,-24.446 c0.6510000000000001,-1.4 0.8520000000000001,-3.021 0.461,-4.465 C35.16866665673256,5.121 31.72666665673256,3.535 28.30566665673256,4.168 zM25.80166665673256,31.112 c-0.8580000000000001,-0.7500000000000001 -1.774,-1.444 -2.732,-2.083 c0.07800000000000001,-0.47300000000000003 0.10700000000000001,-0.98 0.07700000000000001,-1.5270000000000001 c-0.038000000000000006,-0.6320000000000001 -0.009000000000000003,-1.267 0.029000000000000005,-1.8960000000000001 c0.016000000000000004,-0.22200000000000003 0.036000000000000004,-0.44000000000000006 0.05800000000000001,-0.6580000000000001 c0.010000000000000002,-0.05900000000000001 0.021000000000000005,-0.12000000000000001 0.037000000000000005,-0.202 c0.15200000000000002,-0.8530000000000001 0.38600000000000007,-1.6880000000000002 0.6450000000000001,-2.513 c0.11100000000000002,-0.29700000000000004 0.17,-0.461 0.18000000000000002,-0.508 c0.19100000000000003,-0.402 0.401,-0.795 0.6180000000000001,-1.184 c0.7080000000000001,-1.272 0.31400000000000006,-0.6560000000000001 1.366,-1.729 c0.547,-0.558 1.322,-1.017 2.236,-1.391 C27.61766665673256,22.006 26.61266665673256,26.545 25.80166665673256,31.112 z" fill="#6767e7" id="svg_3" class="selected" fill-opacity="1"/>
		<circle cx="43.62699890136719" cy="6.666999816894531" r="6.666999816894531" fill="#f2a054" id="svg_4" class="" fill-opacity="1"/>
	
<g id="svg_5">
</g><g id="svg_6">
</g><g id="svg_7">
</g><g id="svg_8">
</g><g id="svg_9">
</g><g id="svg_10">
</g><g id="svg_11">
</g><g id="svg_12">
</g><g id="svg_13">
</g><g id="svg_14">
</g><g id="svg_15">
</g><g id="svg_16">
</g><g id="svg_17">
</g><g id="svg_18">
</g><g id="svg_19">
</g></g></svg>