<svg xmlns="http://www.w3.org/2000/svg" xmlns:xlink="http://www.w3.org/1999/xlink" version="1.1" xml:space="preserve" width="360" height="360"><rect id="backgroundrect" width="100%" height="100%" x="0" y="0" fill="none" stroke="none" class=""/>
















<g class="currentLayer"><title>Layer 1</title>
	
		<path d="M56.400000000000006,299.5 C87.69999999999999,331.8 131.5,352 180,352 c94.8,0 172,-77.2 172,-172 S274.8,8 180,8 S8,85.2 8,180 c0,45.2 17.6,86.4 46.2,117.1 C54.8,298.1 55.599999999999994,298.8 56.400000000000006,299.5 zM180,332.2 c-37.4,0 -71.8,-13.6 -98.3,-36.1 c44.6,-14.8 61.1,-32.8 67.2,-44.8 c8.5,3.7 18,5.7 28.5,5.8 c0.2,0 0.5,0 0.7000000000000006,0 c0.1,0 0.7000000000000006,0 0.9,0 s0.5,0 0.7000000000000006,0 c11.4,-0.2 21.7,-2.5 30.6,-6.8 c5.7,12 21.9,30.6 67.8,45.8 C251.7,318.6 217.39999999999998,332.2 180,332.2 zM124.4,148.2 c0,-0.2 0,-0.4 0,-0.6000000000000006 c2.4,-52.1 40.8,-56.2 52.6,-56.2 c0.5,0 0.9,0 1.2,0 s0.5,0 0.8,0 s0.6000000000000006,0 1.2,0 c11.7,0 50.2,4.1 52.6,56.2 c0,0.2 0,0.4 0,0.6000000000000006 c0.1,0.5 5,48.7 -17.5,74 c-8.9,10 -20.8,15 -36.3,15.1 c-0.1,0 -0.3000000000000003,0 -0.3000000000000003,0 l0,0 c-0.1,0 -0.2,0 -0.3000000000000003,0 c-15.6,-0.2 -27.4,-5.1 -36.3,-15.1 C119.5,197.1 124.30000000000001,148.7 124.4,148.2 zM180,27.8 c83.9,0 152.2,68.3 152.2,152.2 c0,38.4 -14.4,73.6 -37.9,100.4 c-64.6,-18.8 -67.1,-41.6 -67.1,-41.9 c0,0.4 0,0.5 0,0.5 h-0.7000000000000006 c1.2,-1.2 2.4,-2.4 3.6,-3.7 c27.5,-30.9 22.9,-83.8 22.4,-89 c-2.7,-55.2 -40.6,-74.8 -72.3,-74.8 c-0.6000000000000006,0 -1.2,0 -1.6,0 c-0.4,0 -0.9,0 -1.6,0 c-31.7,0 -69.7,19.6 -72.3,74.8 c-0.5,5.1 -5,58 22.4,89 c1.6,1.8 3.3,3.5 5,5.1 c-2.1,5.8 -12.7,24.2 -66.4,39.9 c-23.6,-26.8 -37.9,-61.9 -37.9,-100.3 C27.799999999999997,96.1 96.1,27.8 180,27.8 z" id="svg_3" class="" fill-opacity="1" fill="#9eb0ba" stroke="#9eb0ba" stroke-opacity="1" stroke-width="11"/>
		
		
	
<g id="svg_6">
</g><g id="svg_7">
</g><g id="svg_8">
</g><g id="svg_9">
</g><g id="svg_10">
</g><g id="svg_11">
</g><g id="svg_12">
</g><g id="svg_13">
</g><g id="svg_14">
</g><g id="svg_15">
</g><g id="svg_16">
</g><g id="svg_17">
</g><g id="svg_18">
</g><g id="svg_19">
</g><g id="svg_20">
</g></g></svg>