
<svg viewBox="0 0 831 526" version="1.1" xmlns="http://www.w3.org/2000/svg" xmlns:xlink="http://www.w3.org/1999/xlink">
    <!-- Generator: Sketch 47.1 (45422) - http://www.bohemiancoding.com/sketch -->
    <desc>Created with Sketch.</desc>
    <defs></defs>
    <g id="Symbols" stroke="none" stroke-width="1" fill="none" fill-rule="evenodd">
        <g id="Group-3" transform="translate(-30.000000, -28.000000)">
            <g transform="translate(-10.000000, -5.000000)" id="Rectangle-22">
                <rect fill="#4386FC" opacity="0.74852808" transform="translate(688.000000, 198.500000) rotate(-315.000000) translate(-688.000000, -198.500000) " x="492" y="115" width="392" height="167" rx="83.5"></rect>
                <rect fill="#E9F9FF" opacity="0.874943388" transform="translate(605.500000, 290.500000) rotate(-315.000000) translate(-605.500000, -290.500000) " x="441" y="207" width="329" height="167" rx="83.5"></rect>
                <rect fill="#19B5FE" opacity="0.674365942" transform="translate(658.000000, 356.000000) rotate(-315.000000) translate(-658.000000, -356.000000) " x="413" y="262" width="490" height="188" rx="94"></rect>
                <rect fill="#FBCB87" opacity="0.96020154" transform="translate(605.875415, 446.875415) rotate(-315.000000) translate(-605.875415, -446.875415) " x="502.875415" y="363.375415" width="206" height="167" rx="83.5"></rect>
                <rect fill="#FBCB87" opacity="0.96020154" transform="translate(349.816540, 194.816540) rotate(-315.000000) translate(-349.816540, -194.816540) " x="188.31654" y="121.81654" width="323" height="146" rx="73"></rect>
                <rect fill="#85DDF1" opacity="0.639039855" transform="translate(569.500000, 156.000000) rotate(-315.000000) translate(-569.500000, -156.000000) " x="424" y="88" width="291" height="136" rx="68"></rect>
                <rect fill="#687AE8" opacity="0.639039855" transform="translate(747.500000, 299.000000) rotate(-315.000000) translate(-747.500000, -299.000000) " x="602" y="231" width="291" height="136" rx="68"></rect>
                <rect fill="#4386FC" opacity="0.639039855" transform="translate(465.887608, 218.887608) rotate(-315.000000) translate(-465.887608, -218.887608) " x="299.387608" y="140.887608" width="333" height="156" rx="78"></rect>
                <rect fill="#4386FC" opacity="0.639039855" transform="translate(443.500000, 392.000000) rotate(-315.000000) translate(-443.500000, -392.000000) " x="298" y="324" width="291" height="136" rx="68"></rect>
                <rect fill="#19B5FE" opacity="0.676970109" transform="translate(245.012500, 250.012500) rotate(-315.000000) translate(-245.012500, -250.012500) " x="-4.48750032" y="153.0125" width="499" height="194" rx="97"></rect>
                <rect fill="#7A8AEB" opacity="0.887171649" transform="translate(202.500000, 387.000000) rotate(-315.000000) translate(-202.500000, -387.000000) " x="6" y="312" width="393" height="150" rx="75"></rect>
                <rect fill="#4386FC" opacity="0.861469656" transform="translate(320.000000, 400.500000) rotate(-315.000000) translate(-320.000000, -400.500000) " x="134" y="309" width="372" height="183" rx="91.5"></rect>
            </g>
        </g>
    </g>
</svg>
